<svg id="Multicolor" xmlns="http://www.w3.org/2000/svg" xmlns:xlink="http://www.w3.org/1999/xlink" viewBox="0 0 100 112"><defs><style>.cls-1,.cls-15,.cls-4,.cls-9{fill:none;}.cls-2{fill:#e8f4fa;}.cls-11,.cls-3{fill:#ffcebf;}.cls-11,.cls-13,.cls-15,.cls-16,.cls-4,.cls-7,.cls-8,.cls-9{stroke:#191816;}.cls-16,.cls-4,.cls-7,.cls-8,.cls-9{stroke-linecap:round;}.cls-13,.cls-15,.cls-16,.cls-4,.cls-7,.cls-8{stroke-linejoin:round;}.cls-5{fill:#6dd627;}.cls-6,.cls-8{fill:#9ceb60;}.cls-7{fill:#e4ffd1;}.cls-11,.cls-9{stroke-miterlimit:10;}.cls-10{fill:#ffdcd1;}.cls-12{clip-path:url(#clip-path);}.cls-13{fill:#009fd9;}.cls-14{fill:#00b8f0;}.cls-16{fill:#fff;}</style><clipPath id="clip-path"><circle class="cls-1" cx="50" cy="56" r="40"/></clipPath></defs><title>12- money-payment-4</title><g id="New_Symbol_53-41" data-name="New Symbol 53"><circle class="cls-2" cx="50" cy="56" r="40"/></g><path class="cls-3" d="M54.87,56.26,40.15,41.54a2.52,2.52,0,0,0-3.57,3.57l8,8A2.52,2.52,0,0,0,41,56.71l.89.89a2.52,2.52,0,0,0-3.57,3.57l.9.89a2.52,2.52,0,1,0-3.57,3.57L41,71c4.6,4.6,7.19,3.62,9.82,6.25l3.57,3.57L64.69,70.54l-4.46-4.46Z"/><path class="cls-4" d="M54.87,56.26,40.15,41.54a2.52,2.52,0,0,0-3.57,3.57l8,8A2.52,2.52,0,0,0,41,56.71l.89.89a2.52,2.52,0,0,0-3.57,3.57l.9.89a2.52,2.52,0,1,0-3.57,3.57L41,71c4.6,4.6,7.19,3.62,9.82,6.25l3.57,3.57L64.69,70.54l-4.46-4.46Z"/><line class="cls-4" x1="44.61" y1="53.14" x2="45.5" y2="54.03"/><line class="cls-4" x1="39.26" y1="62.06" x2="40.15" y2="62.96"/><line class="cls-4" x1="41.93" y1="57.6" x2="42.83" y2="58.49"/><rect class="cls-5" x="36.44" y="43.31" width="33.15" height="17.96" rx="2.76" ry="2.76" transform="translate(-15.7 80.96) rotate(-67.25)"/><path class="cls-6" d="M50.08,36.08,39.39,61.56a2.76,2.76,0,0,0,1.48,3.61l1.91.8a2.77,2.77,0,0,1-1.48-3.61L52,36.88A2.76,2.76,0,0,1,55.6,35.4l-1.91-.8A2.76,2.76,0,0,0,50.08,36.08Z"/><rect class="cls-4" x="36.44" y="43.31" width="33.15" height="17.96" rx="2.76" ry="2.76" transform="translate(-15.7 80.96) rotate(-67.25)"/><path class="cls-7" d="M60.64,41.25l-5.1-2.13a2.76,2.76,0,0,1-3.61,1.48l-8,19.11a2.76,2.76,0,0,1,1.48,3.61l5.1,2.14A2.76,2.76,0,0,1,54.11,64l8-19.11A2.76,2.76,0,0,1,60.64,41.25Z"/><path class="cls-8" d="M54.09,49.74a2.77,2.77,0,1,1-3.62,1.48A2.77,2.77,0,0,1,54.09,49.74Z"/><rect class="cls-5" x="39.69" y="42.17" width="33.15" height="17.96" rx="2.76" ry="2.76" transform="translate(-16.33 73.78) rotate(-59.59)"/><path class="cls-6" d="M55.51,34.69l-14,23.83a2.76,2.76,0,0,0,1,3.78l1.79,1.05a2.76,2.76,0,0,1-1-3.78l14-23.83a2.77,2.77,0,0,1,3.78-1l-1.79-1A2.77,2.77,0,0,0,55.51,34.69Z"/><rect class="cls-4" x="39.69" y="42.17" width="33.15" height="17.96" rx="2.76" ry="2.76" transform="translate(-16.33 73.78) rotate(-59.59)"/><path class="cls-7" d="M65.29,41.23l-4.77-2.79a2.77,2.77,0,0,1-3.78,1L46.25,57.29a2.76,2.76,0,0,1,1,3.78L52,63.87a2.75,2.75,0,0,1,3.78-1L66.27,45A2.78,2.78,0,0,1,65.29,41.23Z"/><path class="cls-8" d="M57.66,48.77a2.76,2.76,0,1,1-3.78,1A2.76,2.76,0,0,1,57.66,48.77Z"/><rect class="cls-5" x="43.73" y="41.71" width="33.15" height="17.96" rx="2.76" ry="2.76" transform="translate(-15.44 72.38) rotate(-56.03)"/><path class="cls-6" d="M60.58,34.22,45.14,57.13A2.76,2.76,0,0,0,45.88,61l1.72,1.16a2.78,2.78,0,0,1-.75-3.84L62.29,35.38a2.77,2.77,0,0,1,3.84-.75l-1.72-1.16A2.76,2.76,0,0,0,60.58,34.22Z"/><rect class="cls-4" x="43.73" y="41.71" width="33.15" height="17.96" rx="2.76" ry="2.76" transform="translate(-15.44 72.38) rotate(-56.03)"/><path class="cls-7" d="M69.93,41.35l-4.58-3.08a2.77,2.77,0,0,1-3.84.74L49.93,56.2A2.76,2.76,0,0,1,50.68,60l4.58,3.09a2.78,2.78,0,0,1,3.84-.75L70.68,45.19A2.77,2.77,0,0,1,69.93,41.35Z"/><path class="cls-8" d="M61.85,48.4a2.77,2.77,0,1,1-3.84.75A2.77,2.77,0,0,1,61.85,48.4Z"/><path class="cls-3" d="M56.87,70.49A8.82,8.82,0,0,1,58,59.39l.73-.73-1.3-4.86a2.53,2.53,0,1,1,4.88-1.3s1.82,6.37,2.11,7.93c.5,2.6-3.8,6-.15,9.69l.42.42-4,4"/><path class="cls-9" d="M56.87,70.49A8.82,8.82,0,0,1,58,59.39l.73-.73-1.3-4.86a2.53,2.53,0,1,1,4.88-1.3s1.82,6.37,2.11,7.93c.5,2.6-3.8,6-.15,9.69l.42.42-4,4"/><path class="cls-10" d="M56.8,70.37a1.84,1.84,0,0,0,1.41-.66,1.87,1.87,0,0,0,.38-1.51c-.67-3.43.55-5.9,2.65-8.15a1.27,1.27,0,0,0,.3-1.19L60.43,54.7a2.51,2.51,0,0,1,1.51-3,2.52,2.52,0,0,0-4.51,2.08l1.3,4.86-.73.73A8.81,8.81,0,0,0,56.8,70.37Z"/><path class="cls-1" d="M56.87,70.49A8.82,8.82,0,0,1,58,59.39l.73-.73-1.3-4.86a2.53,2.53,0,1,1,4.88-1.3s1.82,6.37,2.11,7.93c.5,2.6-3.8,6-.15,9.69l.42.42-4,4"/><path class="cls-9" d="M56.87,70.49A8.82,8.82,0,0,1,58,59.39l.73-.73-1.3-4.86a2.53,2.53,0,1,1,4.88-1.3s1.82,6.37,2.11,7.93c.5,2.6-3.8,6-.15,9.69l.42.42-4,4"/><path class="cls-11" d="M45.06,57.15a2.52,2.52,0,0,1-3.57,0l-2.68-2.67a2.52,2.52,0,1,1,3.57-3.57l2.68,2.67A2.53,2.53,0,0,1,45.06,57.15Z"/><path class="cls-11" d="M42.83,62.06a2.52,2.52,0,0,1-3.57,0l-2.68-2.67a2.52,2.52,0,0,1,3.57-3.57l2.68,2.67A2.53,2.53,0,0,1,42.83,62.06Z"/><path class="cls-11" d="M40.15,66.53a2.53,2.53,0,0,1-3.57,0l-1.34-1.34a2.52,2.52,0,0,1,3.57-3.57L40.15,63A2.53,2.53,0,0,1,40.15,66.53Z"/><g class="cls-12"><rect class="cls-13" x="58.94" y="76.74" width="23.56" height="19.56" rx="1.26" ry="1.26" transform="translate(59.55 197.72) rotate(-135)"/><path class="cls-14" d="M68.42,72.17a1.26,1.26,0,0,1,1.78,0L85.08,87.05a1.26,1.26,0,0,1,0,1.78l-1.34,1.34L67.08,73.51Z"/><rect class="cls-15" x="58.94" y="76.74" width="23.56" height="19.56" rx="1.26" ry="1.26" transform="translate(59.55 197.72) rotate(-135)"/><path class="cls-16" d="M60.42,68.34h2.52a0,0,0,0,1,0,0v17a0,0,0,0,1,0,0H60.42a1.26,1.26,0,0,1-1.26-1.26V69.6a1.26,1.26,0,0,1,1.26-1.26Z" transform="translate(72.23 -20.66) rotate(45)"/></g></svg>