<svg id="Multicolor" xmlns="http://www.w3.org/2000/svg" xmlns:xlink="http://www.w3.org/1999/xlink" viewBox="0 0 100 112"><defs><style>.cls-1,.cls-4,.cls-6{fill:none;}.cls-2{fill:#e8f4fa;}.cls-3,.cls-42{fill:#fff;}.cls-4{stroke:#4f4a45;}.cls-10,.cls-11,.cls-17,.cls-23,.cls-27,.cls-28,.cls-29,.cls-33,.cls-36,.cls-37,.cls-4,.cls-40,.cls-41,.cls-42,.cls-5,.cls-6,.cls-7{stroke-linecap:round;stroke-linejoin:round;}.cls-5{fill:#009fd9;}.cls-10,.cls-11,.cls-17,.cls-23,.cls-27,.cls-28,.cls-29,.cls-33,.cls-36,.cls-37,.cls-40,.cls-41,.cls-42,.cls-5,.cls-6,.cls-7{stroke:#191816;}.cls-7{fill:#947746;}.cls-8{fill:#9f5ae5;}.cls-9{fill:#bf8df2;}.cls-10{fill:#ffda8f;}.cls-11,.cls-13{fill:#614b44;}.cls-12{fill:#ffbe3d;}.cls-14{fill:#947063;}.cls-15,.cls-31{fill:#191816;}.cls-15{opacity:0.15;}.cls-16,.cls-17{fill:#daedf7;}.cls-18{fill:#dea47a;}.cls-19,.cls-23{fill:#bf8256;}.cls-20{fill:#f0d5a8;}.cls-21{fill:#debb7e;}.cls-22{fill:#915e3a;}.cls-24{clip-path:url(#clip-path);}.cls-25{fill:#ff6242;}.cls-26{fill:#ff866e;}.cls-27{fill:#656769;}.cls-28{fill:#ffcebf;}.cls-29{fill:#6dd627;}.cls-30{fill:#f0f0f0;}.cls-32{fill:#ffb59e;}.cls-33{fill:#a86c4d;}.cls-34{fill:#de926a;}.cls-35,.cls-36{fill:#c0dceb;}.cls-37{fill:#ffe500;}.cls-38{fill:#adc4d9;}.cls-39{fill:#8ca4b8;}.cls-40{fill:#00b8f0;}.cls-41{fill:#525252;}</style><clipPath id="clip-path"><circle class="cls-1" cx="50" cy="56" r="40"/></clipPath></defs><title>38- team-work-together-4</title><g id="Background"><g id="New_Symbol_9-20" data-name="New Symbol 9"><path class="cls-2" d="M90,56A40,40,0,1,0,13.56,72.5H86.44A39.85,39.85,0,0,0,90,56Z"/><path class="cls-3" d="M13.56,72.5a40,40,0,0,0,72.88,0Z"/><line class="cls-4" x1="11" y1="72.5" x2="89" y2="72.5"/><line class="cls-4" x1="6.5" y1="72.5" x2="9" y2="72.5"/><line class="cls-4" x1="91" y1="72.5" x2="93.5" y2="72.5"/></g></g><g id="Scene"><polygon class="cls-5" points="26.02 60.5 24.52 79 16.52 79 15.03 60.5 26.02 60.5"/><line class="cls-6" x1="20.53" y1="63.5" x2="20.53" y2="79"/><path class="cls-7" d="M15.3,79a1,1,0,0,1-.9-1.45A3,3,0,0,1,17,76h.5a3,3,0,0,1,3,3Z"/><path class="cls-7" d="M20.53,79a3,3,0,0,1,3-3H24a3,3,0,0,1,2.62,1.55A1,1,0,0,1,25.76,79Z"/><path class="cls-8" d="M20,43.5A8.49,8.49,0,0,1,26,46V60.5H15V45.14A8.39,8.39,0,0,1,20,43.5Z"/><path class="cls-9" d="M20,43.5A8.49,8.49,0,0,1,26,46v2.5A8.49,8.49,0,0,0,20,46a8.39,8.39,0,0,0-5,1.64v-2.5A8.39,8.39,0,0,1,20,43.5Z"/><path class="cls-6" d="M20,43.5A8.49,8.49,0,0,1,26,46V60.5H15V45.14A8.39,8.39,0,0,1,20,43.5Z"/><path class="cls-10" d="M17.55,43.87l2.18,3a1,1,0,0,0,1.61,0l2-2.72A8.5,8.5,0,0,0,20,43.5,8.41,8.41,0,0,0,17.55,43.87Z"/><path class="cls-10" d="M34.75,55H32a3.52,3.52,0,0,1-3.5-3.52h0A8.48,8.48,0,0,0,26,46v9.59c1.35,2.26,3.64,2.93,6,2.93h2.75a1.75,1.75,0,0,0,0-3.5Z"/><path class="cls-10" d="M11.59,51A8.46,8.46,0,0,1,15,45.14v6.34h0A3.49,3.49,0,0,0,18.53,55h2.75a1.75,1.75,0,0,1,0,3.5H18.53a7,7,0,0,1-5-2.12A6.77,6.77,0,0,1,11.59,51Z"/><circle class="cls-11" cx="14.5" cy="39.1" r="3"/><path class="cls-10" d="M20.51,27.06a6,6,0,0,0-6,6v1.2c-1.72,0-1.6,3,.3,3h0a6,6,0,0,0,11.73-1.81v-2.4A6,6,0,0,0,20.51,27.06Z"/><path class="cls-12" d="M18.68,36.44a.61.61,0,1,1-.6-.61A.6.6,0,0,1,18.68,36.44Z"/><path class="cls-6" d="M20.18,38a2.91,2.91,0,0,0,3,0"/><path class="cls-6" d="M18.82,34.5a.86.86,0,0,1,1.21,0"/><path class="cls-6" d="M23.32,34.5a.86.86,0,0,1,1.21,0"/><path class="cls-13" d="M20.43,25.14a6.27,6.27,0,0,0-1,.08,6.59,6.59,0,0,0-5.62,6.52v2.93s4.7-1.67,4.7-4.91a33.07,33.07,0,0,1,8.5,4v-2A6.6,6.6,0,0,0,20.43,25.14Z"/><path class="cls-14" d="M14.55,28.74a6.56,6.56,0,0,1,4.9-3.52,6.27,6.27,0,0,1,1-.08,6.6,6.6,0,0,1,6.6,6.6v2l-.07,0A6.6,6.6,0,0,0,20.43,28a6.27,6.27,0,0,0-1,.08,6.59,6.59,0,0,0-5.62,6.52V31.74A6.54,6.54,0,0,1,14.55,28.74Z"/><path class="cls-6" d="M20.43,25.14a6.27,6.27,0,0,0-1,.08,6.59,6.59,0,0,0-5.62,6.52v2.93s4.7-1.67,4.7-4.91a33.07,33.07,0,0,1,8.5,4v-2A6.6,6.6,0,0,0,20.43,25.14Z"/><ellipse class="cls-15" cx="30.5" cy="80.5" rx="25" ry="1.5"/><line class="cls-6" x1="35" y1="58.5" x2="45" y2="58.5"/><rect class="cls-16" x="28.5" y="39.5" width="23" height="16" rx="2" ry="2"/><path class="cls-3" d="M49.5,39.5h-19a2,2,0,0,0-2,2V44a2,2,0,0,1,2-2h19a2,2,0,0,1,2,2V41.5A2,2,0,0,0,49.5,39.5Z"/><rect class="cls-6" x="28.5" y="39.5" width="23" height="16" rx="2" ry="2"/><line class="cls-6" x1="31.5" y1="41.5" x2="48.5" y2="41.5"/><path class="cls-17" d="M43.5,58.5h-7l.85-10.17a2,2,0,0,1,2-1.83h1.32a2,2,0,0,1,2,1.83Z"/><line class="cls-6" x1="31.5" y1="51.5" x2="31.5" y2="52.5"/><line class="cls-6" x1="33.5" y1="51.5" x2="33.5" y2="52.5"/><line class="cls-6" x1="35.5" y1="51.5" x2="35.5" y2="52.5"/><path class="cls-18" d="M53,60.5H8v17a2,2,0,0,0,2,2H51a2,2,0,0,0,2-2Z"/><rect class="cls-19" x="8" y="60.5" width="45" height="2.5"/><path class="cls-6" d="M53,60.5H8v17a2,2,0,0,0,2,2H51a2,2,0,0,0,2-2Z"/><rect class="cls-20" x="21" y="60.5" width="29" height="19"/><rect class="cls-21" x="21" y="60.5" width="29" height="2.5"/><rect class="cls-6" x="21" y="60.5" width="29" height="19"/><rect class="cls-19" x="24" y="63.5" width="23" height="13" rx="3" ry="3"/><path class="cls-22" d="M47,66.5a3,3,0,0,0-3-3H27a3,3,0,0,0-3,3V69a3,3,0,0,1,3-3H44a3,3,0,0,1,3,3Z"/><rect class="cls-6" x="24" y="63.5" width="23" height="13" rx="3" ry="3"/><path class="cls-23" d="M53,60.5a1,1,0,0,0,0-2H8a1,1,0,0,0,0,2Z"/><g class="cls-24"><path class="cls-25" d="M92.5,73.5h-24v-16a2,2,0,0,1,2-2h20a2,2,0,0,1,2,2Z"/><path class="cls-26" d="M90.5,55.5h-20a2,2,0,0,0-2,2v4a2,2,0,0,1,2-2h20a2,2,0,0,1,2,2v-4A2,2,0,0,0,90.5,55.5Z"/><path class="cls-6" d="M92.5,73.5h-24v-16a2,2,0,0,1,2-2h20a2,2,0,0,1,2,2Z"/><path class="cls-27" d="M68.5,80.5h4a0,0,0,0,1,0,0v1a1,1,0,0,1-1,1h-2a1,1,0,0,1-1-1v-1A0,0,0,0,1,68.5,80.5Z"/><rect class="cls-27" x="88.5" y="80.5" width="4" height="2"/><path class="cls-27" d="M77.5,80.5h4a0,0,0,0,1,0,0v1a1,1,0,0,1-1,1h-2a1,1,0,0,1-1-1v-1A0,0,0,0,1,77.5,80.5Z"/><path class="cls-25" d="M92.5,80.5h-24v-7a2,2,0,0,1,2-2h20a2,2,0,0,1,2,2Z"/><path class="cls-6" d="M92.5,80.5h-24v-7a2,2,0,0,1,2-2h20a2,2,0,0,1,2,2Z"/><line class="cls-6" x1="77.5" y1="71.5" x2="77.5" y2="80.5"/><path class="cls-25" d="M64.5,80.5h4v-16h-3a2,2,0,0,0-2,2v13A1,1,0,0,0,64.5,80.5Z"/><path class="cls-26" d="M65.5,64.5a2,2,0,0,0-2,2v3a2,2,0,0,1,2-2h3v-3Z"/><path class="cls-6" d="M64.5,80.5h4v-16h-3a2,2,0,0,0-2,2v13A1,1,0,0,0,64.5,80.5Z"/><path class="cls-25" d="M92.5,71.5h-6v-14a2,2,0,0,1,2-2h2a2,2,0,0,1,2,2Z"/><path class="cls-26" d="M90.5,55.5h-2a2,2,0,0,0-2,2V61a2,2,0,0,1,2-2h2a2,2,0,0,1,2,2V57.5A2,2,0,0,0,90.5,55.5Z"/><path class="cls-6" d="M92.5,71.5h-6v-14a2,2,0,0,1,2-2h2a2,2,0,0,1,2,2Z"/><path class="cls-25" d="M91.5,80.5h-11a1,1,0,0,1-1-1v-13a2,2,0,0,1,2-2h9a2,2,0,0,1,2,2v13A1,1,0,0,1,91.5,80.5Z"/><path class="cls-26" d="M90.5,64.5h-9a2,2,0,0,0-2,2v3a2,2,0,0,1,2-2h9a2,2,0,0,1,2,2v-3A2,2,0,0,0,90.5,64.5Z"/><path class="cls-6" d="M91.5,80.5h-11a1,1,0,0,1-1-1v-13a2,2,0,0,1,2-2h9a2,2,0,0,1,2,2v13A1,1,0,0,1,91.5,80.5Z"/><path class="cls-25" d="M80.5,80.5h3a1,1,0,0,0,1-1v-13a2,2,0,0,0-2-2h-1a2,2,0,0,0-2,2v13A1,1,0,0,0,80.5,80.5Z"/><path class="cls-26" d="M79.5,67.5v-1a2,2,0,0,1,2-2h1a2,2,0,0,1,2,2v1Z"/><path class="cls-6" d="M80.5,80.5h3a1,1,0,0,0,1-1v-13a2,2,0,0,0-2-2h-1a2,2,0,0,0-2,2v13A1,1,0,0,0,80.5,80.5Z"/><ellipse class="cls-15" cx="72.5" cy="83.5" rx="19.5" ry="1.5"/></g><path class="cls-28" d="M56.75,63.75A1.76,1.76,0,0,1,58.5,62h4.25a.76.76,0,0,0,.75-.75,1,1,0,0,1,0-.25H67a1,1,0,0,1,0,.25,4.26,4.26,0,0,1-4.25,4.25H58.5A1.76,1.76,0,0,1,56.75,63.75Z"/><path class="cls-29" d="M61,79.5h4.5l1.19-6.37a2,2,0,0,1,2-1.63H73v-4H65.54a3,3,0,0,0-3,2.51Z"/><path class="cls-28" d="M72.5,34a6,6,0,0,1,6,6v.8a1.23,1.23,0,0,1,1,1.2,1.25,1.25,0,0,1-1.13,1.23A6,6,0,0,1,66.5,42V40A6,6,0,0,1,72.5,34Z"/><path class="cls-30" d="M82.5,59.5a9.5,9.5,0,0,0-19,0V61H66v6.5H79V61h3.5Z"/><path class="cls-3" d="M73,50a9.5,9.5,0,0,0-9.5,9.5V61h0a9.5,9.5,0,0,1,18.9,0h0V59.5A9.5,9.5,0,0,0,73,50Z"/><path class="cls-6" d="M82.5,59.5a9.5,9.5,0,0,0-19,0V61H66v6.5H79V61h3.5Z"/><path class="cls-31" d="M73.25,40a.75.75,0,1,0,.75.75.76.76,0,0,0-.75-.75Z"/><path class="cls-31" d="M69.25,40a.75.75,0,1,0,.75.75.76.76,0,0,0-.75-.75Z"/><circle class="cls-32" cx="75.25" cy="42.75" r="0.75"/><path class="cls-6" d="M73,44.55a2.73,2.73,0,0,1-3,0"/><path class="cls-33" d="M66,38.5a6.5,6.5,0,0,1,13,0v2a5.15,5.15,0,0,1-3.5-3C72.7,39.39,69,39,66,38.5Z"/><path class="cls-34" d="M72.5,34.5a6.52,6.52,0,0,0-6,4.07L66,38.5a6.5,6.5,0,0,1,13,0v2h0A6.49,6.49,0,0,0,72.5,34.5Z"/><path class="cls-6" d="M66,38.5a6.5,6.5,0,0,1,13,0v2a5.15,5.15,0,0,1-3.5-3C72.7,39.39,69,39,66,38.5Z"/><path class="cls-6" d="M76.5,36.5a3.2,3.2,0,0,1-1,1"/><line class="cls-6" x1="79" y1="61" x2="79" y2="58"/><line class="cls-6" x1="66" y1="61" x2="66" y2="58"/><path class="cls-7" d="M58.5,82.5a3,3,0,0,1,3-3h4v3Z"/><path class="cls-7" d="M64.5,82.5a3,3,0,0,1,3-3h4v2a1,1,0,0,1-1,1Z"/><path class="cls-28" d="M73,50a9.59,9.59,0,0,1,3,.47,3.48,3.48,0,0,1-6.84.37A9.37,9.37,0,0,1,73,50Z"/><path class="cls-29" d="M67,79.5h4.5l1.19-6.37a2,2,0,0,1,2-1.63H77a2,2,0,0,0,2-2v-2H71.54a3,3,0,0,0-3,2.51Z"/><path class="cls-28" d="M73.25,62h5a.76.76,0,0,0,.75-.75V61h3.5v.25a4.26,4.26,0,0,1-4.25,4.25h-5a1.75,1.75,0,0,1,0-3.5Z"/><path class="cls-35" d="M55.5,65.5a1,1,0,0,0,1,1H70l-1.5-9a1,1,0,0,0-1-1H55a1,1,0,0,0-1,1Z"/><path class="cls-35" d="M55.5,65.5a1,1,0,0,0,1,1H70l-1.5-9a1,1,0,0,0-1-1H55a1,1,0,0,0-1,1Z"/><path class="cls-35" d="M55.5,65.5a1,1,0,0,0,1,1H70l-1.5-9a1,1,0,0,0-1-1H55a1,1,0,0,0-1,1Z"/><path class="cls-16" d="M68.58,58l-.08-.5a1,1,0,0,0-1-1H55a1,1,0,0,0-1,1l.09.5Z"/><path class="cls-36" d="M56.5,68.5H69a1,1,0,0,0,1-1v-1H55.5v1A1,1,0,0,0,56.5,68.5Z"/><path class="cls-6" d="M55.5,65.5a1,1,0,0,0,1,1H70l-1.5-9a1,1,0,0,0-1-1H55a1,1,0,0,0-1,1Z"/><circle class="cls-37" cx="62" cy="62" r="1.5"/><polyline class="cls-6" points="61.5 59 62 59.5 62 60.5"/><path class="cls-36" d="M76.41,66.5a.49.49,0,0,1,.41.21.5.5,0,0,1,.07.46A2,2,0,0,1,75,68.5H70v-2Z"/><ellipse class="cls-15" cx="49.5" cy="86.5" rx="9.5" ry="1.5"/><path class="cls-38" d="M45.5,84.25a1.25,1.25,0,0,1-2.5,0V72.5h2.5Z"/><rect class="cls-39" x="43" y="72.5" width="2.5" height="1.5"/><path class="cls-6" d="M45.5,84.25a1.25,1.25,0,0,1-2.5,0V72.5h2.5Z"/><rect class="cls-38" x="45.5" y="72.5" width="8" height="3"/><rect class="cls-39" x="45.5" y="72.5" width="8" height="1.5"/><rect class="cls-6" x="45.5" y="72.5" width="8" height="3"/><path class="cls-40" d="M58.5,71.5a1,1,0,0,1-1,1h-16a1,1,0,0,1,0-2h16A1,1,0,0,1,58.5,71.5Z"/><path class="cls-41" d="M45.5,84.25a1.25,1.25,0,0,1-2.5,0V83h2.5Z"/><path class="cls-38" d="M56,84.25a1.25,1.25,0,0,1-2.5,0V72.5H56Z"/><rect class="cls-39" x="53.5" y="72.5" width="2.5" height="1.5"/><path class="cls-6" d="M56,84.25a1.25,1.25,0,0,1-2.5,0V72.5H56Z"/><path class="cls-41" d="M56,84.25a1.25,1.25,0,0,1-2.5,0V83H56Z"/><path class="cls-3" d="M46,66.5a2,2,0,0,0,2,2h3a2,2,0,0,0,2-2v-3a1,1,0,0,0-1-1H47a1,1,0,0,0-1,1Z"/><path class="cls-2" d="M46,64.5a2,2,0,0,0,2,2h3a2,2,0,0,0,2-2v2a2,2,0,0,1-2,2H48a2,2,0,0,1-2-2Z"/><path class="cls-6" d="M46,66.5a2,2,0,0,0,2,2h3a2,2,0,0,0,2-2v-3a1,1,0,0,0-1-1H47a1,1,0,0,0-1,1Z"/><path class="cls-6" d="M46,63.5h-.76A1.23,1.23,0,0,0,44,64.74h0a1.23,1.23,0,0,0,.68,1.1L46,66.5"/><path class="cls-17" d="M45,69.39a2,2,0,0,0,1.79,1.11h5.52a2,2,0,0,0,1.79-1.11.61.61,0,0,0,0-.6.64.64,0,0,0-.53-.29h-8a.64.64,0,0,0-.53.29A.61.61,0,0,0,45,69.39Z"/><path class="cls-42" d="M47.07,53.22a2.31,2.31,0,0,1,3,1.44,2.34,2.34,0,0,1-.36,2.18l0,0a1.39,1.39,0,0,1,.64,1.86,1.39,1.39,0,0,1-2.59-1,2.32,2.32,0,0,1-.68-4.51Z"/><circle class="cls-42" cx="51.98" cy="51" r="1.5"/></g></svg>