<?xml version="1.0" encoding="UTF-8"?>
<svg width="202px" height="201px" viewBox="0 0 202 201" version="1.1" xmlns="http://www.w3.org/2000/svg" xmlns:xlink="http://www.w3.org/1999/xlink">
    <!-- Generator: Sketch 55.2 (78181) - https://sketchapp.com -->
    <title>Eamli-Score-Icon</title>
    <desc>Created with Sketch.</desc>
    <defs>
        <linearGradient x1="0%" y1="91.2559167%" x2="98.1329871%" y2="8.39706947%" id="linearGradient-1">
            <stop stop-color="#398DD3" offset="0%"></stop>
            <stop stop-color="#54BDEA" offset="100%"></stop>
        </linearGradient>
    </defs>
    <g id="Eamli-Score-Icon" stroke="none" stroke-width="1" fill="none" fill-rule="evenodd">
        <g id="Group-5" transform="translate(10.000000, 10.000000)">
            <g id="Group-4" fill="#FFFFFF" stroke="url(#linearGradient-1)" stroke-width="8">
                <circle id="Oval" cx="90.4608696" cy="90.4608696" r="94.4608696"></circle>
            </g>
            <g id="Group-28" transform="translate(42.250000, 58.625000)" fill="#2A2B2C" fill-rule="nonzero">
                <path d="M19.38,30.805 C21.37501,31.3116692 22.9029114,32.2695763 23.96375,33.67875 C25.0245886,35.0879237 25.555,36.8374896 25.555,38.9275 C25.555,41.8091811 24.4941773,44.1049914 22.3725,45.815 C20.2508227,47.5250085 17.385018,48.38 13.775,48.38 C11.7166564,48.38 9.7375095,48.0633365 7.8375,47.43 C5.9374905,46.7966635 4.32250665,45.9100057 2.9925,44.77 C2.26416303,44.1366635 1.9,43.3925043 1.9,42.5375 C1.9,41.8408298 2.09791469,41.2470858 2.49375,40.75625 C2.88958531,40.2654142 3.35666398,40.02 3.895,40.02 C4.21166825,40.02 4.4966654,40.0754161 4.75,40.18625 C5.0033346,40.2970839 5.35166445,40.4791654 5.795,40.7325 C7.12500665,41.6191711 8.39166065,42.2999976 9.595,42.775 C10.7983393,43.2500024 12.1124929,43.4875 13.5375,43.4875 C15.6275104,43.4875 17.1791616,43.0679209 18.1925,42.22875 C19.2058384,41.3895791 19.7125,40.1150085 19.7125,38.405 C19.7125,36.7266583 19.1820886,35.483754 18.12125,34.67625 C17.0604114,33.868746 15.4216778,33.465 13.205,33.465 L10.4975,33.465 C9.76916302,33.465 9.20708531,33.2195858 8.81125,32.72875 C8.41541469,32.2379142 8.2175,31.6758365 8.2175,31.0425 C8.2175,30.3774967 8.41541469,29.8075024 8.81125,29.3325 C9.20708531,28.8574976 9.76916302,28.62 10.4975,28.62 L12.3975,28.62 C16.735855,28.62 18.905,26.989183 18.905,23.7275 C18.905,22.2074924 18.4458379,21.0358375 17.5275,20.2125 C16.6091621,19.3891625 15.3425081,18.9775 13.7275,18.9775 C11.4158218,18.9775 8.94584647,19.8958241 6.3175,21.7325 C5.87416445,21.9858346 5.5258346,22.1679161 5.2725,22.27875 C5.0191654,22.3895839 4.73416825,22.445 4.4175,22.445 C3.87916397,22.445 3.41208531,22.1995858 3.01625,21.70875 C2.62041469,21.2179142 2.4225,20.6241701 2.4225,19.9275 C2.4225,19.4524976 2.50958246,19.0487517 2.68375,18.71625 C2.85791754,18.3837483 3.1349981,18.0433351 3.515,17.695 C4.84500665,16.5866611 6.43624074,15.7079199 8.28875,15.05875 C10.1412593,14.4095801 12.0333237,14.085 13.965,14.085 C17.2583498,14.085 19.8787403,14.8924919 21.82625,16.5075 C23.7737597,18.1225081 24.7475,20.2758199 24.7475,22.9675 C24.7158332,24.8041758 24.2329213,26.4112431 23.29875,27.78875 C22.3645787,29.1662569 21.0583417,30.1716635 19.38,30.805 Z M34.39,48.285 C33.3766616,48.285 32.5375033,47.9445867 31.8725,47.26375 C31.2074967,46.5829133 30.875,45.7358384 30.875,44.7225 C30.875,43.7091616 31.2074967,42.8620867 31.8725,42.18125 C32.5375033,41.5004133 33.3766616,41.16 34.39,41.16 C35.4033384,41.16 36.2424967,41.5004133 36.9075,42.18125 C37.5725033,42.8620867 37.905,43.7091616 37.905,44.7225 C37.905,45.7358384 37.5725033,46.5829133 36.9075,47.26375 C36.2424967,47.9445867 35.4033384,48.285 34.39,48.285 Z M64.1725,14.5125 C64.9958374,14.5125 65.6291645,14.742081 66.0725,15.20125 C66.5158356,15.660419 66.7375,16.254163 66.7375,16.9825 C66.7375,17.710837 66.5158356,18.4708294 66.0725,19.2625 L50.92,46.765 C50.2866635,47.841672 49.4158389,48.38 48.3075,48.38 C47.5474962,48.38 46.8745863,48.1187526 46.28875,47.59625 C45.7029137,47.0737474 45.41,46.4325038 45.41,45.6725 C45.41,45.134164 45.5683318,44.595836 45.885,44.0575 L59.5175,19.4525 L45.1725,19.4525 C43.2724905,19.4525 42.3225,18.6450081 42.3225,17.03 C42.3225,15.3516583 43.2724905,14.5125 45.1725,14.5125 L64.1725,14.5125 Z M81.9375,14.085 C86.1808545,14.085 89.4504052,15.5179023 91.74625,18.38375 C94.0420948,21.2495977 95.19,25.3424734 95.19,30.6625 C95.19,34.3041849 94.651672,37.4629033 93.575,40.13875 C92.4983279,42.8145967 90.9545934,44.8649929 88.94375,46.29 C86.9329066,47.7150071 84.5658469,48.4275 81.8425,48.4275 C80.037491,48.4275 78.2245924,48.1029199 76.40375,47.45375 C74.5829076,46.8045801 73.039173,45.9258389 71.7725,44.8175 C71.3608313,44.4691649 71.0679175,44.1287517 70.89375,43.79625 C70.7195825,43.4637483 70.6325,43.0600024 70.6325,42.585 C70.6325,41.8883299 70.8304147,41.2945858 71.22625,40.80375 C71.6220853,40.3129142 72.089164,40.0675 72.6275,40.0675 C72.9441682,40.0675 73.2449986,40.1229161 73.53,40.23375 C73.8150014,40.3445839 74.1633313,40.5266654 74.575,40.78 C77.2033465,42.6166759 79.5466564,43.535 81.605,43.535 C83.9166782,43.535 85.7374933,42.4662607 87.0675,40.32875 C88.3975066,38.1912393 89.0941663,35.1908527 89.1575,31.3275 C88.429163,32.7525071 87.3366739,33.8845791 85.88,34.72375 C84.423326,35.5629209 82.792509,35.9825 80.9875,35.9825 C78.99249,35.9825 77.2191744,35.5312545 75.6675,34.62875 C74.1158256,33.7262455 72.9045877,32.4595915 72.03375,30.82875 C71.1629123,29.1979085 70.7275,27.3375104 70.7275,25.2475 C70.7275,23.0941559 71.2104118,21.1704251 72.17625,19.47625 C73.1420882,17.7820749 74.4720749,16.4600047 76.16625,15.51 C77.8604251,14.5599953 79.7841559,14.085 81.9375,14.085 Z M82.27,31.1375 C84.0433422,31.1375 85.4762445,30.5754223 86.56875,29.45125 C87.6612555,28.3270777 88.2075,26.862509 88.2075,25.0575 C88.2075,23.2208241 87.6612555,21.7404223 86.56875,20.61625 C85.4762445,19.4920777 84.0433422,18.93 82.27,18.93 C80.5283246,18.93 79.1350052,19.4920777 78.09,20.61625 C77.0449948,21.7404223 76.5225,23.2208241 76.5225,25.0575 C76.5225,26.8941758 77.0449948,28.3666611 78.09,29.475 C79.1350052,30.5833389 80.5283246,31.1375 82.27,31.1375 Z" id="3.79"></path>
            </g>
        </g>
    </g>
</svg>