<svg id="Multicolor" xmlns="http://www.w3.org/2000/svg" viewBox="0 0 100 112"><defs><style>.cls-1{fill:#e8f4fa;}.cls-2,.cls-7{fill:#fff;}.cls-12,.cls-3{fill:none;}.cls-11,.cls-12,.cls-13,.cls-15,.cls-18,.cls-22,.cls-23,.cls-3,.cls-6,.cls-7,.cls-8{stroke:#191816;stroke-linejoin:round;}.cls-11,.cls-15,.cls-18,.cls-22,.cls-3,.cls-6,.cls-7,.cls-8{stroke-linecap:round;}.cls-4,.cls-6{fill:#656769;}.cls-5{fill:#87898c;}.cls-8{fill:#ff6242;}.cls-11,.cls-9{fill:#ffcebf;}.cls-10{fill:#ffb59e;}.cls-13{fill:#ffc44d;}.cls-14{fill:#ffdb94;}.cls-15{fill:#009fd9;}.cls-16{fill:#b89558;}.cls-17{fill:#debb7e;}.cls-18{fill:#915e3a;}.cls-19{fill:#ffdcd1;}.cls-20,.cls-22{fill:#daedf7;}.cls-21{fill:#c0dceb;}.cls-23{fill:#f0f0f0;}</style></defs><title>43- office-working-desk-male-caucasian-2</title><g id="Background"><g id="New_Symbol_28" data-name="New Symbol 28"><path class="cls-1" d="M90.5,56A40,40,0,1,0,14.06,72.5H86.94A39.85,39.85,0,0,0,90.5,56Z"/><path class="cls-2" d="M14.06,72.5a40,40,0,0,0,72.88,0Z"/><line class="cls-3" x1="11" y1="72.5" x2="89" y2="72.5"/><line class="cls-3" x1="6.5" y1="72.5" x2="9" y2="72.5"/><line class="cls-3" x1="91" y1="72.5" x2="93.5" y2="72.5"/></g></g><g id="Scene"><path class="cls-4" d="M82.5,71.5H79.42a2.92,2.92,0,0,1-2.92-2.92V65a15.5,15.5,0,0,0-31,0v7.5H71.41a8.93,8.93,0,0,0,8,5H82.5a3,3,0,0,0,0-6Z"/><path class="cls-5" d="M61,49.5A15.5,15.5,0,0,0,45.5,65v4.5a15.5,15.5,0,0,1,31,0V65A15.5,15.5,0,0,0,61,49.5Z"/><path class="cls-3" d="M82.5,71.5H79.42a2.92,2.92,0,0,1-2.92-2.92V65a15.5,15.5,0,0,0-31,0v7.5H71.41a8.93,8.93,0,0,0,8,5H82.5a3,3,0,0,0,0-6Z"/><polygon class="cls-6" points="57.83 48.5 61 48.5 61 72.5 52 59 54.5 56 51.5 55 57.83 48.5"/><polygon class="cls-6" points="64.18 48.5 61 48.5 61 72.5 70 59 67.5 56 70.5 55 64.18 48.5"/><path class="cls-7" d="M64.5,52V48.5h-7V52c-.54,2.37-1.09,4.22-.32,6.53L61,72.5l3.83-14C65.6,56.22,65.05,54.37,64.5,52Z"/><polyline class="cls-3" points="64.98 57.99 61 55.5 57.02 57.99"/><polygon class="cls-8" points="62.81 56.63 62 58.5 60 58.5 59.19 56.63 61 55.5 62.81 56.63"/><path class="cls-8" d="M63,65.06a24.63,24.63,0,0,0-1-6.56H60a25,25,0,0,0-1,6.56l2,7.44Z"/><polygon class="cls-9" points="64.5 52 61 55.5 57.5 52 57.5 46.5 64.5 46.5 64.5 52"/><path class="cls-10" d="M57.5,50a12.26,12.26,0,0,0,7,0V46.5h-7Z"/><polygon class="cls-3" points="64.5 52 61 55.5 57.5 52 57.5 46.5 64.5 46.5 64.5 52"/><path class="cls-11" d="M71,36V33.5a10,10,0,0,0-20,0V36a2,2,0,0,0,0,4h.13a10,10,0,0,0,19.75,0H71a2,2,0,0,0,0-4Z"/><path class="cls-3" d="M66.5,37a1.63,1.63,0,0,0-3,0"/><path class="cls-3" d="M58.51,37a1.63,1.63,0,0,0-3,0"/><circle class="cls-10" cx="55.25" cy="40.25" r="1.25"/><circle class="cls-10" cx="66.75" cy="40.25" r="1.25"/><line class="cls-3" x1="51.5" y1="63.5" x2="51.5" y2="72.5"/><line class="cls-12" x1="68.5" y1="29" x2="69.5" y2="27.5"/><path class="cls-13" d="M49.5,36.5v-9a3,3,0,0,1,3-3c2.39-2.78,6.36-3.59,9-3.5,3.83.14,7.38,2.15,8,6.5a5.43,5.43,0,0,1,3,4.86V36.5l-1.57-1A6,6,0,0,1,68.5,29,18.2,18.2,0,0,1,61,30.5,22.42,22.42,0,0,1,53,29c.69,2.75.21,5-2.09,6.57Z"/><path class="cls-14" d="M69.5,27.5c-.62-4.35-4.17-6.36-8-6.5-2.64-.09-6.61.72-9,3.5a3,3,0,0,0-3,3V30a3,3,0,0,1,3-3A10.72,10.72,0,0,1,61,23.5c3.73.14,6.82,2.38,7,5.73L68.5,29a5.81,5.81,0,0,0-.11.71c1.8,1,4.11,3.23,4.11,5.15v-2.5A5.43,5.43,0,0,0,69.5,27.5Z"/><path class="cls-12" d="M49.5,36.5v-9a3,3,0,0,1,3-3c2.39-2.78,6.36-3.59,9-3.5,3.83.14,7.38,2.15,8,6.5a5.43,5.43,0,0,1,3,4.86V36.5l-1.57-1A6,6,0,0,1,68.5,29,18.2,18.2,0,0,1,61,30.5,22.42,22.42,0,0,1,53,29c.69,2.75.21,5-2.09,6.57Z"/><path class="cls-13" d="M65.46,45.9a10,10,0,0,0-.25-3.36,1.72,1.72,0,0,0-1.69-1.29h-5a1.72,1.72,0,0,0-1.68,1.29,9.78,9.78,0,0,0-.25,3.36A15.11,15.11,0,0,1,52,43c0,5,9,8,9,8s9-3,9-8A15,15,0,0,1,65.46,45.9Zm-6.94-2.4a.22.22,0,0,1,.23-.15h4.5a.24.24,0,0,1,.24.15,4,4,0,0,1,.25,1.31,2,2,0,0,1-1.6,2A10.42,10.42,0,0,1,61,47a11.2,11.2,0,0,1-1.14-.17,2,2,0,0,1-1.59-2A4,4,0,0,1,58.52,43.5Z"/><path class="cls-15" d="M71.41,72.5a8.86,8.86,0,0,1-.91-3.92V63.5"/><path class="cls-16" d="M90.31,69.83c-1.5,0-5.11-.63-8.22,3.11a4.39,4.39,0,0,1-2.25,1.59c-1.82.44-.32-2.07-1.22-4.4a1,1,0,0,0-1-.64l-3.53.05a1,1,0,0,0-1,.87c-.5,3.48.1,7.64,4.25,7.59l1,0a7.41,7.41,0,0,0,5.22-2.91c2.82-3.37,4.07-4.2,6.69-4.24.55,0,1,0,1-.51S90.86,69.83,90.31,69.83Z"/><path class="cls-17" d="M73,71.91A1.08,1.08,0,0,1,74.11,71L78,71a1.14,1.14,0,0,1,.87.36,4.4,4.4,0,0,0-.28-1.22,1,1,0,0,0-1-.64l-3.53.05a1,1,0,0,0-1,.87A14.86,14.86,0,0,0,73,71.92Z"/><path class="cls-3" d="M90.31,69.83c-1.5,0-5.11-.63-8.22,3.11a4.39,4.39,0,0,1-2.25,1.59c-1.82.44-.32-2.07-1.22-4.4a1,1,0,0,0-1-.64l-3.53.05a1,1,0,0,0-1,.87c-.5,3.48.1,7.64,4.25,7.59l1,0a7.41,7.41,0,0,0,5.22-2.91c2.82-3.37,4.07-4.2,6.69-4.24.55,0,1,0,1-.51S90.86,69.83,90.31,69.83Z"/><path class="cls-18" d="M91.31,70.32c0-.5-.45-.49-1-.49-1.25,0-4-.42-6.63,1.59l1.43,2c1.87-2,3.1-2.52,5.21-2.55C90.87,70.83,91.32,70.82,91.31,70.32Z"/><path class="cls-9" d="M82.46,77.48l-2.19-1.06a1.51,1.51,0,0,1-.7-2l1.31-2.7a1.51,1.51,0,0,1,2-.69l2.19,1.06a2,2,0,0,1,1,2.37A10.29,10.29,0,0,1,85,76.83,2,2,0,0,1,82.46,77.48Z"/><path class="cls-19" d="M82,72.82l4,1.94a2.25,2.25,0,0,1,.08-.24,2,2,0,0,0-1-2.44L82.89,71a1.51,1.51,0,0,0-2,.69L80,73.51A1.51,1.51,0,0,1,82,72.82Z"/><path class="cls-3" d="M82.46,77.48l-2.19-1.06a1.51,1.51,0,0,1-.7-2l1.31-2.7a1.51,1.51,0,0,1,2-.69l2.19,1.06a2,2,0,0,1,1,2.37A10.29,10.29,0,0,1,85,76.83,2,2,0,0,1,82.46,77.48Z"/><path class="cls-7" d="M80.51,63a1.5,1.5,0,0,0-2.93-.43A2.12,2.12,0,0,0,77,62.5a2.5,2.5,0,1,0,2.5,2.5,2.62,2.62,0,0,0-.07-.57A1.5,1.5,0,0,0,80.51,63Z"/><rect class="cls-20" x="13.5" y="45" width="35.5" height="27.5" rx="2" ry="2"/><path class="cls-2" d="M47,45H15.5a2,2,0,0,0-2,2H49A2,2,0,0,0,47,45Z"/><path class="cls-21" d="M15.5,72.5H47a2,2,0,0,0,2-2H13.5A2,2,0,0,0,15.5,72.5Z"/><path class="cls-22" d="M38,75.5a1.61,1.61,0,0,1-1.56,2H26.06a1.61,1.61,0,0,1-1.56-2Z"/><rect class="cls-3" x="13.5" y="45" width="35.5" height="27.5" rx="2" ry="2"/><path class="cls-22" d="M36.5,77.5H26c1.5-4,2-15.5,2-15.5h6.5S35,73.5,36.5,77.5Z"/><line class="cls-3" x1="17.5" y1="68" x2="17.5" y2="69.5"/><line class="cls-3" x1="19.5" y1="68" x2="19.5" y2="69.5"/><line class="cls-3" x1="21.5" y1="68" x2="21.5" y2="69.5"/><line class="cls-3" x1="23.5" y1="68" x2="23.5" y2="69.5"/><path class="cls-23" d="M32.34,54.65a1.14,1.14,0,0,1,.53-.94,1.13,1.13,0,0,0-.9-.48c-.38,0-.74.22-.94.22s-.49-.22-.81-.21a1.17,1.17,0,0,0-1,.61,2.53,2.53,0,0,0,.31,2.48c.2.3.45.63.77.62s.43-.2.81-.2.48.2.81.19.55-.3.75-.6a2.76,2.76,0,0,0,.34-.7A1.08,1.08,0,0,1,32.34,54.65Z"/><line class="cls-3" x1="31.5" y1="51.95" x2="31.95" y2="51.5"/><line class="cls-3" x1="16.5" y1="47" x2="45.5" y2="47"/></g></svg>