<?xml version="1.0" encoding="UTF-8"?>
<svg width="49px" height="49px" viewBox="0 0 49 49" version="1.1" xmlns="http://www.w3.org/2000/svg" xmlns:xlink="http://www.w3.org/1999/xlink">
    <!-- Generator: Sketch 55.2 (78181) - https://sketchapp.com -->
    <title>Expansion Icon</title>
    <desc>Created with Sketch.</desc>
    <g id="Expansion-Icon" stroke="none" stroke-width="1" fill="none" fill-rule="evenodd">
        <circle id="Oval-Copy-7" fill-opacity="0.2" fill="#398DD3" cx="24.5" cy="24" r="24.5"></circle>
        <g id="round-zoom_out_map-24px" transform="translate(9.500000, 9.000000)">
            <polygon id="Path" points="0 0 30 0 30 30 0 30"></polygon>
            <path d="M19.8125,4.8125 L21.625,6.625 L18.9,9.325 C18.4125,9.8125 18.4125,10.6125 18.9,11.1 C19.3875,11.5875 20.1875,11.5875 20.675,11.1 L23.375,8.375 L25.1875,10.1875 C25.575,10.575 26.25,10.3 26.25,9.7375 L26.25,4.375 C26.25,4.025 25.975,3.75 25.625,3.75 L20.2625,3.75 C19.7,3.75 19.425,4.425 19.8125,4.8125 L19.8125,4.8125 Z M4.8125,10.1875 L6.625,8.375 L9.325,11.1 C9.8125,11.5875 10.6125,11.5875 11.1,11.1 C11.5875,10.6125 11.5875,9.8125 11.1,9.325 L8.375,6.625 L10.1875,4.8125 C10.575,4.425 10.3,3.75 9.7375,3.75 L4.375,3.75 C4.025,3.75 3.75,4.025 3.75,4.375 L3.75,9.7375 C3.75,10.3 4.425,10.575 4.8125,10.1875 L4.8125,10.1875 Z M10.1875,25.1875 L8.375,23.375 L11.1,20.675 C11.5875,20.1875 11.5875,19.3875 11.1,18.9 C10.6125,18.4125 9.8125,18.4125 9.325,18.9 L6.625,21.625 L4.8125,19.8125 C4.425,19.425 3.75,19.7 3.75,20.2625 L3.75,25.625 C3.75,25.975 4.025,26.25 4.375,26.25 L9.7375,26.25 C10.3,26.25 10.575,25.575 10.1875,25.1875 Z M25.1875,19.8125 L23.375,21.625 L20.675,18.9 C20.1875,18.4125 19.3875,18.4125 18.9,18.9 C18.4125,19.3875 18.4125,20.1875 18.9,20.675 L21.625,23.375 L19.8125,25.1875 C19.425,25.575 19.7,26.25 20.2625,26.25 L25.625,26.25 C25.975,26.25 26.25,25.975 26.25,25.625 L26.25,20.2625 C26.25,19.7 25.575,19.425 25.1875,19.8125 L25.1875,19.8125 Z" id="Shape" fill="#398DD3" fill-rule="nonzero"></path>
        </g>
    </g>
</svg>