<svg id="Multicolor" xmlns="http://www.w3.org/2000/svg" viewBox="0 0 100 112"><defs><style>.cls-1{fill:#e8f4fa;}.cls-2{fill:#fff;}.cls-3{fill:none;}.cls-12,.cls-13,.cls-3,.cls-4,.cls-7,.cls-8{stroke:#191816;stroke-linejoin:round;}.cls-13,.cls-3,.cls-7,.cls-8{stroke-linecap:round;}.cls-4,.cls-7{fill:#6dd627;}.cls-5,.cls-8{fill:#c8ffa1;}.cls-6{fill:#fff5eb;}.cls-9{fill:#191816;opacity:0.15;}.cls-10,.cls-12{fill:#ffe500;}.cls-11{fill:#fffacf;}.cls-13{fill:#9ceb60;}</style></defs><title>74- money-angel</title><g id="New_Symbol_29-14" data-name="New Symbol 29"><path class="cls-1" d="M90,56A40,40,0,1,0,13.57,72.5H86.44A39.85,39.85,0,0,0,90,56Z"/><path class="cls-2" d="M13.57,72.5a40,40,0,0,0,72.87,0Z"/><line class="cls-3" x1="11" y1="72.5" x2="89" y2="72.5"/><line class="cls-3" x1="6.5" y1="72.5" x2="9" y2="72.5"/><line class="cls-3" x1="91" y1="72.5" x2="93.5" y2="72.5"/></g><path class="cls-4" d="M54,62.51A1.58,1.58,0,0,0,51.38,62a14.84,14.84,0,0,1-8.27,3.83,1.56,1.56,0,0,0-1.2.73,1.55,1.55,0,0,0-.14,1.4L43,71a1.58,1.58,0,0,0,1.69,1,23.14,23.14,0,0,0,9.29-3.75,2.75,2.75,0,0,0,1-3.25Z"/><path class="cls-5" d="M49.72,67.4a1.18,1.18,0,1,1-2.36,0,1.18,1.18,0,1,1,2.36,0Z"/><path class="cls-6" d="M25.27,54.45l-.62,4.43a11,11,0,0,1-7.86,9,.57.57,0,0,1-.6-.22.54.54,0,0,1,0-.63c3.84-5,4.7-11.76,5-17.91a4.19,4.19,0,0,1,3-3.86,4.26,4.26,0,0,1,2.86.19l9.43,4.17,1.67,5.83s-9,2.14-8.84-.62c-.2,4.56-.42,8-4.91,9.29l-2.48.7"/><path class="cls-2" d="M37.23,52.21l-.73-2.55-9.43-4.17a4.26,4.26,0,0,0-2.86-.19,4.19,4.19,0,0,0-3,3.85c-.27,6.16-1.13,12.88-5,17.92a.54.54,0,0,0,0,.63.57.57,0,0,0,.6.22,11.06,11.06,0,0,0,3.51-1.77A42.48,42.48,0,0,0,23,52.22a4.19,4.19,0,0,1,5.89-3.66Z"/><path class="cls-3" d="M25.27,54.45l-.62,4.43a11,11,0,0,1-7.86,9,.57.57,0,0,1-.6-.22.54.54,0,0,1,0-.63c3.84-5,4.7-11.76,5-17.91a4.19,4.19,0,0,1,3-3.86,4.26,4.26,0,0,1,2.86.19l9.43,4.17,1.67,5.83s-9,2.14-8.84-.62c-.2,4.56-.42,8-4.91,9.29l-2.48.7"/><path class="cls-6" d="M67.2,42.44l2.86,3.42a11,11,0,0,0,11.46,3.51.55.55,0,0,0,.39-.5.54.54,0,0,0-.35-.53c-5.93-2.24-10.22-7.48-13.7-12.56a4.19,4.19,0,0,0-4.62-1.66,4.25,4.25,0,0,0-2.32,1.67l-5.79,8.53,1.67,5.83s8.73-2.93,7.17-5.21c2.59,3.77,4.59,6.57,9.08,5.28l2.48-.71"/><path class="cls-2" d="M55.86,46.88l-.73-2.56,5.79-8.53a4.25,4.25,0,0,1,2.32-1.67,4.19,4.19,0,0,1,4.62,1.66c3.48,5.08,7.77,10.32,13.7,12.56a.54.54,0,0,1,.35.53.55.55,0,0,1-.39.5,10.83,10.83,0,0,1-3.92.36,43,43,0,0,1-9.68-10.38,4.2,4.2,0,0,0-6.93,0Z"/><path class="cls-3" d="M67.2,42.44l2.86,3.42a11,11,0,0,0,11.46,3.51.55.55,0,0,0,.39-.5.54.54,0,0,0-.35-.53c-5.93-2.24-10.22-7.48-13.7-12.56a4.19,4.19,0,0,0-4.62-1.66,4.25,4.25,0,0,0-2.32,1.67l-5.79,8.53,1.67,5.83s8.73-2.93,7.17-5.21c2.59,3.77,4.59,6.57,9.08,5.28l2.48-.71"/><rect class="cls-7" x="32.28" y="40.32" width="27.6" height="15.18" rx="1.2" ry="1.2" transform="matrix(0.96, -0.28, 0.28, 0.96, -11.41, 14.55)"/><path class="cls-8" d="M57.26,46.86l-1.14-4A2.75,2.75,0,0,1,52.71,41L36.79,45.55A2.76,2.76,0,0,1,34.89,49l1.14,4a2.77,2.77,0,0,1,3.42,1.89l15.92-4.56A2.75,2.75,0,0,1,57.26,46.86Z"/><ellipse class="cls-9" cx="55.33" cy="78.76" rx="25.88" ry="1.72"/><path class="cls-4" d="M78.38,63.13a1.57,1.57,0,0,0-1.14-1,1.61,1.61,0,0,0-1.43.43,14.88,14.88,0,0,1-8.24,3.89,1.57,1.57,0,0,0-1.32,2.14l1.2,3.05a1.56,1.56,0,0,0,1.69,1,23.12,23.12,0,0,0,9.27-3.81,2.76,2.76,0,0,0,1-3.26Z"/><path class="cls-5" d="M74.2,68.05A1.19,1.19,0,1,1,73,66.87,1.18,1.18,0,0,1,74.2,68.05Z"/><path class="cls-10" d="M45.44,76.12a2.07,2.07,0,0,0-2.07-2.07H37.85a2.07,2.07,0,1,0,0,4.14h5.52A2.07,2.07,0,0,0,45.44,76.12Z"/><path class="cls-11" d="M43.37,74.05H37.85a2.07,2.07,0,0,0-2.07,2.07h9.66A2.07,2.07,0,0,0,43.37,74.05Z"/><path class="cls-3" d="M45.44,76.12a2.07,2.07,0,0,0-2.07-2.07H37.85a2.07,2.07,0,1,0,0,4.14h5.52A2.07,2.07,0,0,0,45.44,76.12Z"/><path class="cls-10" d="M57.86,76.12a2.07,2.07,0,0,0-2.07-2.07H47.51a2.07,2.07,0,0,0,0,4.14h8.28A2.07,2.07,0,0,0,57.86,76.12Z"/><path class="cls-11" d="M55.79,74.05H47.51a2.07,2.07,0,0,0-2.07,2.07H57.86A2.07,2.07,0,0,0,55.79,74.05Z"/><path class="cls-3" d="M57.86,76.12a2.07,2.07,0,0,0-2.07-2.07H47.51a2.07,2.07,0,0,0,0,4.14h8.28A2.07,2.07,0,0,0,57.86,76.12Z"/><path class="cls-10" d="M48.89,72a2.07,2.07,0,0,0-2.07-2.07H38.54a2.07,2.07,0,0,0,0,4.14h8.28A2.07,2.07,0,0,0,48.89,72Z"/><path class="cls-11" d="M46.82,69.91H38.54A2.07,2.07,0,0,0,36.47,72H48.89A2.07,2.07,0,0,0,46.82,69.91Z"/><path class="cls-3" d="M48.89,72a2.07,2.07,0,0,0-2.07-2.07H38.54a2.07,2.07,0,0,0,0,4.14h8.28A2.07,2.07,0,0,0,48.89,72Z"/><path class="cls-10" d="M75.8,76.12a2.07,2.07,0,0,0-2.07-2.07H65.45a2.07,2.07,0,0,0,0,4.14h8.28A2.07,2.07,0,0,0,75.8,76.12Z"/><path class="cls-11" d="M73.73,74.05H65.45a2.07,2.07,0,0,0-2.07,2.07H75.8A2.07,2.07,0,0,0,73.73,74.05Z"/><path class="cls-3" d="M75.8,76.12a2.07,2.07,0,0,0-2.07-2.07H65.45a2.07,2.07,0,0,0,0,4.14h8.28A2.07,2.07,0,0,0,75.8,76.12Z"/><path class="cls-10" d="M59.87,77.25a2.07,2.07,0,0,0-.73-2.83L52,70.2a2.07,2.07,0,0,0-2.1,3.56L57,78A2.07,2.07,0,0,0,59.87,77.25Z"/><path class="cls-11" d="M59.14,74.42,52,70.2a2.06,2.06,0,0,0-2.83.73l10.69,6.32A2.07,2.07,0,0,0,59.14,74.42Z"/><path class="cls-3" d="M59.87,77.25a2.07,2.07,0,0,0-.73-2.83L52,70.2a2.07,2.07,0,0,0-2.1,3.56L57,78A2.07,2.07,0,0,0,59.87,77.25Z"/><path class="cls-10" d="M65.39,75.8A2.08,2.08,0,0,0,64.66,73l-7.13-4.22a2.07,2.07,0,0,0-2.1,3.57l7.12,4.21A2.08,2.08,0,0,0,65.39,75.8Z"/><path class="cls-11" d="M64.66,73l-7.13-4.22a2.07,2.07,0,0,0-2.83.73L65.39,75.8A2.08,2.08,0,0,0,64.66,73Z"/><path class="cls-3" d="M65.39,75.8A2.08,2.08,0,0,0,64.66,73l-7.13-4.22a2.07,2.07,0,0,0-2.1,3.57l7.12,4.21A2.08,2.08,0,0,0,65.39,75.8Z"/><path class="cls-10" d="M69.53,72.42a2.07,2.07,0,0,0-.73-2.83l-7.13-4.22a2.07,2.07,0,0,0-2.1,3.56l7.12,4.22A2.07,2.07,0,0,0,69.53,72.42Z"/><path class="cls-11" d="M68.8,69.59l-7.13-4.22a2.06,2.06,0,0,0-2.83.73l10.69,6.32A2.07,2.07,0,0,0,68.8,69.59Z"/><path class="cls-3" d="M69.53,72.42a2.07,2.07,0,0,0-.73-2.83l-7.13-4.22a2.07,2.07,0,0,0-2.1,3.56l7.12,4.22A2.07,2.07,0,0,0,69.53,72.42Z"/><path class="cls-12" d="M43,37.29C37.75,38.81,32,39,31.19,36s4.09-5.83,9.37-7.35,11-1.71,11.85,1.27S48.32,35.78,43,37.29Zm-9.13-2c.73.41,3.69.74,8.37-.6s7-3.19,7.41-3.92c-.72-.41-3.69-.73-8.36.6S34.31,34.51,33.91,35.24Z"/><path class="cls-13" d="M48.07,47.34a2.07,2.07,0,1,1-2.56-1.42A2.07,2.07,0,0,1,48.07,47.34Z"/></svg>