<svg id="Multicolor" xmlns="http://www.w3.org/2000/svg" xmlns:xlink="http://www.w3.org/1999/xlink" viewBox="0 0 100 112"><defs><style>.cls-1,.cls-15,.cls-6{fill:none;}.cls-2{fill:#e8f4fa;}.cls-3,.cls-7{fill:#ffb59e;}.cls-4{fill:#ffcebf;}.cls-5{fill:#ffdcd1;}.cls-10,.cls-11,.cls-13,.cls-15,.cls-16,.cls-6,.cls-7{stroke:#191816;}.cls-10,.cls-11,.cls-16,.cls-6{stroke-linecap:round;}.cls-10,.cls-11,.cls-13,.cls-15,.cls-16,.cls-6{stroke-linejoin:round;}.cls-7{stroke-miterlimit:10;}.cls-8{fill:#6dd627;}.cls-11,.cls-9{fill:#9ceb60;}.cls-10{fill:#e4ffd1;}.cls-12{clip-path:url(#clip-path);}.cls-13{fill:#009fd9;}.cls-14{fill:#00b8f0;}.cls-16{fill:#fff;}</style><clipPath id="clip-path"><circle class="cls-1" cx="50" cy="56" r="40"/></clipPath></defs><title>10- money-payment-2</title><g id="New_Symbol_53-39" data-name="New Symbol 53"><circle class="cls-2" cx="50" cy="56" r="40"/></g><path class="cls-3" d="M63.15,61.14c-1.23,1.83-4.4,2.9-7.46,1.41L49.5,59.72c3.61-2.65,7.26-3.75,10.9-3.28C63.49,56.84,64.2,59.58,63.15,61.14Z"/><path class="cls-4" d="M70.33,78.07,81.2,67.19l.14-.11C77.7,63.92,76.8,57.23,69.8,53.57c-9.22-4.81-20.62-3.66-30.63,8.84a2.67,2.67,0,1,0,4.16,3.36c.66-.82,1.33-1.58,2-2.3a2.53,2.53,0,0,0,.83.6C56.63,72,58.74,73,61.31,74c4,1.54,5.71,2.28,8.63,4.92A1.34,1.34,0,0,1,70.33,78.07ZM63.15,61.14c-1.23,1.83-4.4,2.9-7.46,1.41L49.5,59.72c3.61-2.65,7.26-3.75,10.9-3.28C63.49,56.84,64.2,59.58,63.15,61.14Z"/><path class="cls-5" d="M79.22,69.18l2-2,.14-.11C77.7,63.92,76.8,57.23,69.8,53.57c-9.22-4.81-20.62-3.66-30.63,8.84a2.67,2.67,0,0,0,0,3.37,2.47,2.47,0,0,1,.27-.42c10-12.5,20.46-13.3,29.76-8.65C72.3,58.26,76.45,65.54,79.22,69.18Z"/><path class="cls-6" d="M70.33,78.07,81.2,67.19l.14-.11C77.7,63.92,76.8,57.23,69.8,53.57c-9.22-4.81-20.62-3.66-30.63,8.84a2.67,2.67,0,1,0,4.16,3.36c.66-.82,1.33-1.58,2-2.3a2.53,2.53,0,0,0,.83.6C56.63,72,58.74,73,61.31,74c4,1.54,5.71,2.28,8.63,4.92A1.34,1.34,0,0,1,70.33,78.07ZM63.15,61.14c-1.23,1.83-4.4,2.9-7.46,1.41L49.5,59.72c3.61-2.65,7.26-3.75,10.9-3.28C63.49,56.84,64.2,59.58,63.15,61.14Z"/><path class="cls-7" d="M54.82,63.18A2.67,2.67,0,0,1,57.34,66l-.47,8.69a2.67,2.67,0,0,1-5.34-.29L52,65.7A2.67,2.67,0,0,1,54.82,63.18Z"/><path class="cls-7" d="M52.05,62.34A2.68,2.68,0,0,1,53.16,66L50,72.18a2.68,2.68,0,0,1-4.72-2.52l3.19-6.21A2.68,2.68,0,0,1,52.05,62.34Z"/><rect class="cls-8" x="29.64" y="33.25" width="20.87" height="38.52" rx="3.21" ry="3.21" transform="translate(-20.52 26.22) rotate(-29.2)"/><path class="cls-9" d="M57,61.43l-15.66-28A3.21,3.21,0,0,0,37,32.17l-2.1,1.17a3.22,3.22,0,0,1,4.37,1.24l15.66,28A3.22,3.22,0,0,1,53.67,67l2.1-1.18A3.2,3.2,0,0,0,57,61.43Z"/><rect class="cls-6" x="29.64" y="33.25" width="20.87" height="38.52" rx="3.21" ry="3.21" transform="translate(-20.52 26.22) rotate(-29.2)"/><path class="cls-10" d="M44.71,67.38l5.6-3.13a3.22,3.22,0,0,1,1.24-4.37l-11.75-21a3.22,3.22,0,0,1-4.37-1.24l-5.6,3.13a3.21,3.21,0,0,1-1.24,4.37l11.75,21A3.21,3.21,0,0,1,44.71,67.38Z"/><path class="cls-11" d="M41.64,55.31a3.21,3.21,0,1,1,1.23-4.37A3.21,3.21,0,0,1,41.64,55.31Z"/><g class="cls-12"><rect class="cls-13" x="77.23" y="68.41" width="9.36" height="20.73" rx="1.34" ry="1.34" transform="translate(84.13 192.41) rotate(-135)"/><path class="cls-14" d="M85,69.09a1.32,1.32,0,0,1,1.89,0l4.73,4.72a1.35,1.35,0,0,1,0,1.9l-1.42,1.42L83.57,70.5Z"/><rect class="cls-15" x="77.23" y="68.41" width="9.36" height="20.73" rx="1.34" ry="1.34" transform="translate(84.13 192.41) rotate(-135)"/><path class="cls-16" d="M76.52,65h2.68a0,0,0,0,1,0,0V83.08a0,0,0,0,1,0,0H76.52a1.34,1.34,0,0,1-1.34-1.34V66.36A1.34,1.34,0,0,1,76.52,65Z" transform="translate(74.97 -32.89) rotate(45)"/></g><path class="cls-4" d="M63.15,61.14c-1.23,1.83-4.4,2.9-7.46,1.41l-7.31-3.34a2.67,2.67,0,1,0-2.22,4.86C56.63,72,58.74,73,61.31,74"/><path class="cls-5" d="M49.22,62.72l7.31,3.34a4.47,4.47,0,0,0,6.4-3.39l.22-1.53c-1.23,1.83-4.4,2.9-7.46,1.41L48.38,59.2a2.67,2.67,0,0,0-2.6,4.65A2.67,2.67,0,0,1,49.22,62.72Z"/><path class="cls-6" d="M63.15,61.14c-1.23,1.83-4.4,2.9-7.46,1.41l-7.31-3.34a2.67,2.67,0,1,0-2.22,4.86C56.63,72,58.74,73,61.31,74"/><path class="cls-4" d="M63.15,61.14c-1.23,1.83-4.4,2.9-7.46,1.41l-7.31-3.34a2.67,2.67,0,1,0-2.22,4.86C56.63,72,58.74,73,61.31,74"/><path class="cls-5" d="M49.22,62.72l7.31,3.34a4.47,4.47,0,0,0,6.4-3.39l.22-1.53c-1.23,1.83-4.4,2.9-7.46,1.41L48.38,59.2a2.67,2.67,0,0,0-2.6,4.65A2.67,2.67,0,0,1,49.22,62.72Z"/><path class="cls-6" d="M63.15,61.14c-1.23,1.83-4.4,2.9-7.46,1.41l-7.31-3.34a2.67,2.67,0,1,0-2.22,4.86C56.63,72,58.74,73,61.31,74"/></svg>