<?xml version="1.0" encoding="UTF-8"?>
<svg width="49px" height="49px" viewBox="0 0 49 49" version="1.1" xmlns="http://www.w3.org/2000/svg" xmlns:xlink="http://www.w3.org/1999/xlink">
    <!-- Generator: Sketch 55.2 (78181) - https://sketchapp.com -->
    <title>Marketing Icon</title>
    <desc>Created with Sketch.</desc>
    <g id="Marketing-Icon" stroke="none" stroke-width="1" fill="none" fill-rule="evenodd">
        <circle id="Oval" fill="#398DD3" opacity="0.2" cx="24.5" cy="24.5" r="24.5"></circle>
        <g id="round-wc-24px" transform="translate(10.000000, 10.000000)">
            <polygon id="Path" points="0.012 0 28.812 0 28.812 28.8 0.012 28.8"></polygon>
            <path d="M6.6,25.2 L6.6,17.4 L6,17.4 C5.34,17.4 4.8,16.86 4.8,16.2 L4.8,10.8 C4.8,9.48 5.88,8.4 7.2,8.4 L10.8,8.4 C12.12,8.4 13.2,9.48 13.2,10.8 L13.2,16.2 C13.2,16.86 12.66,17.4 12,17.4 L11.4,17.4 L11.4,25.2 C11.4,25.86 10.86,26.4 10.2,26.4 L7.8,26.4 C7.14,26.4 6.6,25.86 6.6,25.2 Z M21.6,25.2 L21.6,19.2 L23.532,19.2 C24.348,19.2 24.924,18.396 24.672,17.616 L22.152,10.044 C21.816,9.06 20.904,8.4 19.872,8.4 L19.728,8.4 C18.696,8.4 17.772,9.06 17.448,10.044 L14.928,17.616 C14.664,18.396 15.24,19.2 16.068,19.2 L18,19.2 L18,25.2 C18,25.86 18.54,26.4 19.2,26.4 L20.4,26.4 C21.06,26.4 21.6,25.86 21.6,25.2 Z M9,7.2 C10.332,7.2 11.4,6.132 11.4,4.8 C11.4,3.468 10.332,2.4 9,2.4 C7.668,2.4 6.6,3.468 6.6,4.8 C6.6,6.132 7.668,7.2 9,7.2 Z M19.8,7.2 C21.132,7.2 22.2,6.132 22.2,4.8 C22.2,3.468 21.132,2.4 19.8,2.4 C18.468,2.4 17.4,3.468 17.4,4.8 C17.4,6.132 18.468,7.2 19.8,7.2 Z" id="Shape" fill="#398DD3" fill-rule="nonzero"></path>
        </g>
    </g>
</svg>