<svg id="Multicolor" xmlns="http://www.w3.org/2000/svg" viewBox="0 0 100 112"><defs><style>.cls-1{fill:#e8f4fa;}.cls-2{fill:#fff;}.cls-3,.cls-5,.cls-7{fill:none;}.cls-10,.cls-11,.cls-14,.cls-15,.cls-16,.cls-19,.cls-22,.cls-23,.cls-3,.cls-5,.cls-8{stroke:#191816;}.cls-10,.cls-11,.cls-15,.cls-16,.cls-19,.cls-22,.cls-3,.cls-7,.cls-8{stroke-linecap:round;}.cls-10,.cls-11,.cls-14,.cls-15,.cls-16,.cls-19,.cls-22,.cls-23,.cls-3,.cls-5,.cls-7,.cls-8{stroke-linejoin:round;}.cls-4{fill:#724f3d;}.cls-10,.cls-6{fill:#fff5e3;}.cls-7{stroke:#bdbec0;}.cls-8{fill:#d18660;}.cls-9{fill:#bd704a;}.cls-11{fill:#c8ffa1;}.cls-12{fill:#fffef2;}.cls-13{fill:#f7e5c6;}.cls-14{fill:#fffce5;}.cls-15{fill:#b89558;}.cls-16{fill:#00dba8;}.cls-17{fill:#e09f7e;}.cls-18{fill:#a86c4d;}.cls-19{fill:#ff6242;}.cls-20,.cls-22{fill:#daedf7;}.cls-21{fill:#c0dceb;}.cls-23{fill:#f0f0f0;}</style></defs><title>46- office-working-desk-female-african-american-2</title><g id="Background"><g id="New_Symbol_28-3" data-name="New Symbol 28"><path class="cls-1" d="M90.49,56A40,40,0,1,0,14.06,72.5H86.93A39.85,39.85,0,0,0,90.49,56Z"/><path class="cls-2" d="M14.06,72.5a40,40,0,0,0,72.87,0Z"/><line class="cls-3" x1="10.99" y1="72.5" x2="88.99" y2="72.5"/><line class="cls-3" x1="6.49" y1="72.5" x2="8.99" y2="72.5"/><line class="cls-3" x1="90.99" y1="72.5" x2="93.49" y2="72.5"/></g></g><g id="Scene"><path class="cls-4" d="M77.63,53.52C74.55,45.43,74.19,33.07,74.19,33h0a12,12,0,0,0-24,0h0s-.35,12.39-3.44,20.49a2,2,0,0,0,2.58,2.56c4.16-1.59,10-6,12.61-11.06h.5c2.61,5,8.45,9.47,12.61,11.06A2,2,0,0,0,77.63,53.52Z"/><path class="cls-5" d="M77.63,53.52C74.55,45.43,74.19,33.07,74.19,33h0a12,12,0,0,0-24,0h0s-.35,12.39-3.44,20.49a2,2,0,0,0,2.58,2.56c4.16-1.59,10-6,12.61-11.06h.5c2.61,5,8.45,9.47,12.61,11.06A2,2,0,0,0,77.63,53.52Z"/><path class="cls-6" d="M77.47,61.67h0c-.21.16-.41.31-.62.45l-.45.31a35.09,35.09,0,0,1-4.55,2.61V72.5H53V65a36.65,36.65,0,0,1-5.76-3.38c0-.17.07-.34.11-.51a15.56,15.56,0,0,1,9.54-10.6,14.72,14.72,0,0,1,2-.59,0,0,0,0,1,0,0,14.63,14.63,0,0,1,3.46-.4,15.17,15.17,0,0,1,3.46.41,0,0,0,0,1,0,0,14.72,14.72,0,0,1,2,.59,15.57,15.57,0,0,1,9.5,10.62C77.4,61.33,77.44,61.5,77.47,61.67Z"/><line class="cls-7" x1="63.24" y1="53.47" x2="63.21" y2="72.5"/><line class="cls-7" x1="61.24" y1="53.46" x2="61.21" y2="72.5"/><path class="cls-3" d="M77.47,61.67h0c-.21.16-.41.31-.62.45l-.45.31a35.09,35.09,0,0,1-4.55,2.61V72.5H53V65a36.65,36.65,0,0,1-5.76-3.38c0-.17.07-.34.11-.51a15.56,15.56,0,0,1,9.54-10.6,14.72,14.72,0,0,1,2-.59,0,0,0,0,1,0,0,14.63,14.63,0,0,1,3.46-.4,15.17,15.17,0,0,1,3.46.41,0,0,0,0,1,0,0,14.72,14.72,0,0,1,2,.59,15.57,15.57,0,0,1,9.5,10.62C77.4,61.33,77.44,61.5,77.47,61.67Z"/><polygon class="cls-8" points="65.74 52.04 62.24 52.03 58.74 52.03 58.75 46.53 65.75 46.54 65.74 52.04"/><path class="cls-9" d="M58.74,50a12.38,12.38,0,0,0,7,0V46.54h-7Z"/><polygon class="cls-3" points="65.74 52.04 62.24 52.03 58.74 52.03 58.75 46.53 65.75 46.54 65.74 52.04"/><path class="cls-10" d="M56.74,53V50.68a1.15,1.15,0,0,1,1.16-1.15h0a1.1,1.1,0,0,1,1,.55c.42.84,1.77,1.45,3.36,1.45s2.94-.61,3.36-1.44a1.1,1.1,0,0,1,1-.55h0a1.15,1.15,0,0,1,1.15,1.16V53"/><path class="cls-8" d="M83.85,64.46V69.9a6.15,6.15,0,0,1-5.66,6.22,6,6,0,0,1-5.83-3.57,5.93,5.93,0,0,1-.51-2.42V65.05a27.43,27.43,0,0,0,5-2.94l0,0v8a1,1,0,0,0,2,0v-8.5H81A2.81,2.81,0,0,1,83.85,64.46Z"/><path class="cls-8" d="M47.85,62.09l0,10.41H53V65A43.15,43.15,0,0,1,47.85,62.09Z"/><path class="cls-3" d="M56.74,51a7.31,7.31,0,0,0,11,0"/><path class="cls-3" d="M62.24,53.53s-4.5.5-3.51,2c.37.55.93.43,1.5.06A9.64,9.64,0,0,0,62.24,53.53Z"/><path class="cls-3" d="M62.24,53.53s4.5.51,3.49,2c-.36.55-.93.43-1.5.05A9.36,9.36,0,0,1,62.24,53.53Z"/><path class="cls-3" d="M63.73,62a32,32,0,0,0-1.49-8.51A31.52,31.52,0,0,0,60.73,62"/><line class="cls-11" x1="72.23" y1="56.55" x2="71.73" y2="63.05"/><line class="cls-11" x1="75.85" y1="62.81" x2="74.73" y2="60.55"/><line class="cls-11" x1="52.23" y1="56.52" x2="52.73" y2="63.02"/><line class="cls-11" x1="48.67" y1="62.63" x2="49.73" y2="60.52"/><path class="cls-12" d="M77.69,67h-5.6a1,1,0,0,1-1-.94l-.94-11.53h9.5l-1,11.5A1,1,0,0,1,77.69,67Z"/><polygon class="cls-13" points="79.49 56.52 79.66 54.52 70.16 54.52 70.32 56.52 79.49 56.52"/><path class="cls-3" d="M77.69,67h-5.6a1,1,0,0,1-1-.94l-.94-11.53h9.5l-1,11.5A1,1,0,0,1,77.69,67Z"/><path class="cls-14" d="M70.16,52.52h9.5a1,1,0,0,1,1,1v1a0,0,0,0,1,0,0H69.16a0,0,0,0,1,0,0v-1A1,1,0,0,1,70.16,52.52Z"/><path class="cls-14" d="M71.16,50.52h7.5a1,1,0,0,1,1,1v1a0,0,0,0,1,0,0h-9.5a0,0,0,0,1,0,0v-1A1,1,0,0,1,71.16,50.52Z"/><path class="cls-15" d="M76.16,49a3,3,0,0,0-3-3h-1a1,1,0,0,0,0,2h1a1,1,0,0,1,1,1v1.5h2Z"/><circle class="cls-16" cx="74.91" cy="59.77" r="2.25"/><path class="cls-8" d="M79.58,64.44l2.44.08a1.5,1.5,0,0,0,1.55-1.45l.09-3a1.5,1.5,0,0,0-1.45-1.55l-2.44-.08a2,2,0,0,0-2,1.62,10.14,10.14,0,0,0-.08,2.64A2,2,0,0,0,79.58,64.44Z"/><path class="cls-17" d="M82.15,60.52l-4.45-.14c0-.08,0-.17,0-.25a2,2,0,0,1,2-1.69l2.43.08a1.5,1.5,0,0,1,1.45,1.55l-.06,2A1.51,1.51,0,0,0,82.15,60.52Z"/><path class="cls-3" d="M79.58,64.44l2.44.08a1.5,1.5,0,0,0,1.55-1.45l.09-3a1.5,1.5,0,0,0-1.45-1.55l-2.44-.08a2,2,0,0,0-2,1.62,10.14,10.14,0,0,0-.08,2.64A2,2,0,0,0,79.58,64.44Z"/><path class="cls-18" d="M62.41,26a15.15,15.15,0,0,1,11.67,5.48,12,12,0,0,0-23.85.67A15.17,15.17,0,0,1,62.41,26Z"/><path class="cls-8" d="M74.24,38a2,2,0,0,1-2,2h-.12a10,10,0,0,1-19.76,0h-.12a2,2,0,0,1,0-4v-.91A10.14,10.14,0,0,0,59,31.94,19.59,19.59,0,0,0,61.22,28a13.36,13.36,0,0,0,3.59,5.43,9.4,9.4,0,0,0,7.43,1.62v1A2,2,0,0,1,74.24,38Z"/><path class="cls-3" d="M67.74,37a1.63,1.63,0,0,0-3,0"/><path class="cls-3" d="M59.75,37a1.63,1.63,0,0,0-3,0"/><circle class="cls-9" cx="56.49" cy="40.28" r="1.25"/><circle class="cls-9" cx="67.99" cy="40.28" r="1.25"/><path class="cls-3" d="M59.86,43a3.61,3.61,0,0,0,5,0"/><circle class="cls-19" cx="51.86" cy="40.28" r="1.25"/><circle class="cls-19" cx="72.86" cy="40.28" r="1.25"/><rect class="cls-20" x="14.93" y="45" width="35.5" height="27.5" rx="2" ry="2"/><path class="cls-2" d="M48.43,45H16.93a2,2,0,0,0-2,2h35.5A2,2,0,0,0,48.43,45Z"/><path class="cls-21" d="M16.93,72.5h31.5a2,2,0,0,0,2-2H14.93A2,2,0,0,0,16.93,72.5Z"/><path class="cls-22" d="M39.43,75.5a1.61,1.61,0,0,1-1.56,2H27.49a1.61,1.61,0,0,1-1.56-2Z"/><rect class="cls-3" x="14.93" y="45" width="35.5" height="27.5" rx="2" ry="2"/><path class="cls-22" d="M37.93,77.5H27.43c1.5-4,2-15.5,2-15.5h6.5S36.43,73.5,37.93,77.5Z"/><line class="cls-3" x1="18.93" y1="68" x2="18.93" y2="69.5"/><line class="cls-3" x1="20.93" y1="68" x2="20.93" y2="69.5"/><line class="cls-3" x1="22.93" y1="68" x2="22.93" y2="69.5"/><line class="cls-3" x1="24.93" y1="68" x2="24.93" y2="69.5"/><path class="cls-23" d="M33.77,54.65a1.16,1.16,0,0,1,.53-.94,1.13,1.13,0,0,0-.9-.48c-.38,0-.74.22-.94.22s-.49-.22-.81-.21a1.18,1.18,0,0,0-1,.61A2.55,2.55,0,0,0,31,56.33c.21.3.45.63.77.62s.43-.2.81-.2.48.2.81.19.55-.3.75-.6a2.41,2.41,0,0,0,.34-.7A1.08,1.08,0,0,1,33.77,54.65Z"/><line class="cls-3" x1="32.93" y1="51.95" x2="33.38" y2="51.5"/><line class="cls-3" x1="17.93" y1="47" x2="46.93" y2="47"/></g></svg>