<?xml version="1.0" encoding="UTF-8"?>
<svg width="49px" height="49px" viewBox="0 0 49 49" version="1.1" xmlns="http://www.w3.org/2000/svg" xmlns:xlink="http://www.w3.org/1999/xlink">
    <!-- Generator: Sketch 55.2 (78181) - https://sketchapp.com -->
    <title>Money-Icon</title>
    <desc>Created with Sketch.</desc>
    <g id="Money-Icon" stroke="none" stroke-width="1" fill="none" fill-rule="evenodd">
        <circle id="Oval-Copy" fill-opacity="0.2" fill="#398DD3" cx="24.5" cy="24.5" r="24.5"></circle>
        <g id="round-attach_money-24px-(1)" transform="translate(9.500000, 9.500000)">
            <polygon id="Path" points="0 0 30 0 30 30 0 30"></polygon>
            <path d="M15.375,13.625 C12.5375,12.8875 11.625,12.125 11.625,10.9375 C11.625,9.575 12.8875,8.625 15,8.625 C16.775,8.625 17.6625,9.3 17.9875,10.375 C18.1375,10.875 18.55,11.25 19.075,11.25 L19.45,11.25 C20.275,11.25 20.8625,10.4375 20.575,9.6625 C20.05,8.1875 18.825,6.9625 16.875,6.4875 L16.875,5.625 C16.875,4.5875 16.0375,3.75 15,3.75 C13.9625,3.75 13.125,4.5875 13.125,5.625 L13.125,6.45 C10.7,6.975 8.75,8.55 8.75,10.9625 C8.75,13.85 11.1375,15.2875 14.625,16.125 C17.75,16.875 18.375,17.975 18.375,19.1375 C18.375,20 17.7625,21.375 15,21.375 C12.9375,21.375 11.875,20.6375 11.4625,19.5875 C11.275,19.1 10.85,18.75 10.3375,18.75 L9.9875,18.75 C9.15,18.75 8.5625,19.6 8.875,20.375 C9.5875,22.1125 11.25,23.1375 13.125,23.5375 L13.125,24.375 C13.125,25.4125 13.9625,26.25 15,26.25 C16.0375,26.25 16.875,25.4125 16.875,24.375 L16.875,23.5625 C19.3125,23.1 21.25,21.6875 21.25,19.125 C21.25,15.575 18.2125,14.3625 15.375,13.625 Z" id="Path" fill="#398DD3" fill-rule="nonzero"></path>
        </g>
    </g>
</svg>