<?xml version="1.0" encoding="UTF-8"?>
<svg width="49px" height="49px" viewBox="0 0 49 49" version="1.1" xmlns="http://www.w3.org/2000/svg" xmlns:xlink="http://www.w3.org/1999/xlink">
    <!-- Generator: Sketch 55.2 (78181) - https://sketchapp.com -->
    <title>Money Icon</title>
    <desc>Created with Sketch.</desc>
    <g id="Money-Icon" stroke="none" stroke-width="1" fill="none" fill-rule="evenodd">
        <g id="Group-8" transform="translate(-0.500000, 0.000000)" fill="#398DD3" fill-opacity="0.2">
            <circle id="Oval-Copy-4" cx="25" cy="24.5" r="24.5"></circle>
        </g>
        <polygon id="Path" points="10.5 9.5 40.5 9.5 40.5 39.5 10.5 39.5"></polygon>
        <path d="M37.2625,23.975 L26.0125,12.725 C25.5625,12.275 24.9375,12 24.25,12 L15.5,12 C14.125,12 13,13.125 13,14.5 L13,23.25 C13,23.9375 13.275,24.5625 13.7375,25.025 L24.9875,36.275 C25.4375,36.725 26.0625,37 26.75,37 C27.4375,37 28.0625,36.725 28.5125,36.2625 L37.2625,27.5125 C37.725,27.0625 38,26.4375 38,25.75 C38,25.0625 37.7125,24.425 37.2625,23.975 Z M17.375,18.25 C16.3375,18.25 15.5,17.4125 15.5,16.375 C15.5,15.3375 16.3375,14.5 17.375,14.5 C18.4125,14.5 19.25,15.3375 19.25,16.375 C19.25,17.4125 18.4125,18.25 17.375,18.25 Z" id="Shape" fill="#398DD3" fill-rule="nonzero"></path>
    </g>
</svg>