<?xml version="1.0" encoding="UTF-8"?>
<svg width="74px" height="74px" viewBox="0 0 74 74" version="1.1" xmlns="http://www.w3.org/2000/svg" xmlns:xlink="http://www.w3.org/1999/xlink">
    <!-- Generator: Sketch 55.2 (78181) - https://sketchapp.com -->
    <title>reports-icon</title>
    <desc>Created with Sketch.</desc>
    <defs>
        <linearGradient x1="0%" y1="91.2559167%" x2="98.1329871%" y2="8.39706947%" id="linearGradient-1">
            <stop stop-color="#398DD3" offset="0%"></stop>
            <stop stop-color="#54BDEA" offset="100%"></stop>
        </linearGradient>
    </defs>
    <g id="reports-icon" stroke="none" stroke-width="1" fill="none" fill-rule="evenodd">
        <g id="round-bar_chart-24px">
            <polygon id="Path" points="0 0 73.5842697 0 73.5842697 73.5842697 0 73.5842697"></polygon>
            <path d="M19.6224719,28.2073034 L20.2356742,28.2073034 C22.5965028,28.2073034 24.5280899,30.1388904 24.5280899,32.4997191 L24.5280899,53.9617978 C24.5280899,56.3226264 22.5965028,58.2542135 20.2356742,58.2542135 L19.6224719,58.2542135 C17.2616433,58.2542135 15.3300562,56.3226264 15.3300562,53.9617978 L15.3300562,32.4997191 C15.3300562,30.1388904 17.2616433,28.2073034 19.6224719,28.2073034 Z M36.7921348,15.3300562 C39.1529635,15.3300562 41.0845506,17.2616433 41.0845506,19.6224719 L41.0845506,53.9617978 C41.0845506,56.3226264 39.1529635,58.2542135 36.7921348,58.2542135 C34.4313062,58.2542135 32.4997191,56.3226264 32.4997191,53.9617978 L32.4997191,19.6224719 C32.4997191,17.2616433 34.4313062,15.3300562 36.7921348,15.3300562 Z M53.9617978,39.8581461 C56.3226264,39.8581461 58.2542135,41.7897331 58.2542135,44.1505618 L58.2542135,53.9617978 C58.2542135,56.3226264 56.3226264,58.2542135 53.9617978,58.2542135 C51.6009691,58.2542135 49.669382,56.3226264 49.669382,53.9617978 L49.669382,44.1505618 C49.669382,41.7897331 51.6009691,39.8581461 53.9617978,39.8581461 L53.9617978,39.8581461 Z" id="Shape" fill="url(#linearGradient-1)" fill-rule="nonzero"></path>
        </g>
    </g>
</svg>