<?xml version="1.0" encoding="UTF-8"?>
<svg width="49px" height="49px" viewBox="0 0 49 49" version="1.1" xmlns="http://www.w3.org/2000/svg" xmlns:xlink="http://www.w3.org/1999/xlink">
    <!-- Generator: Sketch 55.2 (78181) - https://sketchapp.com -->
    <title>Research Icon</title>
    <desc>Created with Sketch.</desc>
    <g id="Research-Icon" stroke="none" stroke-width="1" fill="none" fill-rule="evenodd">
        <circle id="Oval-Copy-5" fill="#398DD3" opacity="0.2" cx="24.5" cy="24" r="24.5"></circle>
        <g id="round-search-24px" transform="translate(9.500000, 9.000000)">
            <polygon id="Path" points="0 0 30 0 30 30 0 30"></polygon>
            <path d="M19.375,17.5 L18.3875,17.5 L18.0375,17.1625 C19.5375,15.4125 20.3125,13.025 19.8875,10.4875 C19.3,7.0125 16.4,4.2375 12.9,3.8125 C7.6125,3.1625 3.1625,7.6125 3.8125,12.9 C4.2375,16.4 7.0125,19.3 10.4875,19.8875 C13.025,20.3125 15.4125,19.5375 17.1625,18.0375 L17.5,18.3875 L17.5,19.375 L22.8125,24.6875 C23.325,25.2 24.1625,25.2 24.675,24.6875 C25.1875,24.175 25.1875,23.3375 24.675,22.825 L19.375,17.5 Z M11.875,17.5 C8.7625,17.5 6.25,14.9875 6.25,11.875 C6.25,8.7625 8.7625,6.25 11.875,6.25 C14.9875,6.25 17.5,8.7625 17.5,11.875 C17.5,14.9875 14.9875,17.5 11.875,17.5 Z" id="Shape" fill="#398DD3" fill-rule="nonzero"></path>
        </g>
    </g>
</svg>