<?xml version="1.0" encoding="UTF-8"?>
<svg width="74px" height="74px" viewBox="0 0 74 74" version="1.1" xmlns="http://www.w3.org/2000/svg" xmlns:xlink="http://www.w3.org/1999/xlink">
    <!-- Generator: Sketch 55.2 (78181) - https://sketchapp.com -->
    <title>scenario-icon</title>
    <desc>Created with Sketch.</desc>
    <defs>
        <linearGradient x1="0.418408203%" y1="91.2559167%" x2="97.7302024%" y2="8.39706947%" id="linearGradient-1">
            <stop stop-color="#398DD3" offset="0%"></stop>
            <stop stop-color="#54BDEA" offset="100%"></stop>
        </linearGradient>
    </defs>
    <g id="scenario-icon" stroke="none" stroke-width="1" fill="none" fill-rule="evenodd">
        <g id="round-category-24px" transform="translate(5.500000, 5.500000)">
            <polygon id="Path" points="0 0 63 0 63 63 0 63"></polygon>
            <path d="M29.26875,8.925 C30.2925,7.245 32.7075,7.245 33.73125,8.925 L43.47,24.885 C44.54625,26.6175 43.28625,28.875 41.23875,28.875 L21.735,28.875 C19.6875,28.875 18.4275,26.6175 19.50375,24.885 L29.26875,8.925 Z M45.9375,57.75 C39.4136364,57.75 34.125,52.4613636 34.125,45.9375 C34.125,39.4136364 39.4136364,34.125 45.9375,34.125 C52.4613636,34.125 57.75,39.4136364 57.75,45.9375 C57.75,52.4613636 52.4613636,57.75 45.9375,57.75 Z M10.5,56.4375 C9.05625,56.4375 7.875,55.25625 7.875,53.8125 L7.875,38.0625 C7.875,36.61875 9.05625,35.4375 10.5,35.4375 L26.25,35.4375 C27.69375,35.4375 28.875,36.61875 28.875,38.0625 L28.875,53.8125 C28.875,55.25625 27.69375,56.4375 26.25,56.4375 L10.5,56.4375 Z" id="Combined-Shape" fill="url(#linearGradient-1)" fill-rule="nonzero"></path>
        </g>
    </g>
</svg>