<svg id="Multicolor" xmlns="http://www.w3.org/2000/svg" viewBox="0 0 100 112"><defs><style>.cls-1,.cls-20{fill:#e8f4fa;}.cls-2,.cls-6{fill:#fff;}.cls-11,.cls-3,.cls-5{fill:none;}.cls-11,.cls-14,.cls-15,.cls-18,.cls-20,.cls-23,.cls-24,.cls-3,.cls-6,.cls-8{stroke:#191816;}.cls-18,.cls-3,.cls-5,.cls-8{stroke-linecap:round;}.cls-11,.cls-14,.cls-15,.cls-18,.cls-20,.cls-23,.cls-24,.cls-3,.cls-5,.cls-6,.cls-8{stroke-linejoin:round;}.cls-4{fill:#45413c;}.cls-19,.cls-4{opacity:0.15;}.cls-5{stroke:#fff;}.cls-7{fill:#ff6242;}.cls-14,.cls-8{fill:#ffcebf;}.cls-9{fill:#ffb59e;}.cls-10{fill:#9f5ae5;}.cls-12{fill:#bf8df2;}.cls-13{fill:#f5ebff;opacity:0.6;}.cls-15{fill:#ffd4c3;}.cls-16,.cls-18{fill:#ffc44d;}.cls-17{fill:#ffdb94;}.cls-19{fill:#191816;}.cls-21{fill:#adc4d9;}.cls-22,.cls-23{fill:#c0dceb;}.cls-24{fill:#f0f0f0;}</style></defs><title>08- graphic-designer-male-caucasian-1</title><g id="Background"><g id="New_Symbol_49" data-name="New Symbol 49"><path class="cls-1" d="M89.51,56A40,40,0,1,0,13.07,72.5H85.94A39.7,39.7,0,0,0,89.51,56Z"/><path class="cls-2" d="M13.07,72.5a40,40,0,0,0,72.87,0Z"/><line class="cls-3" x1="10.01" y1="72.5" x2="88.01" y2="72.5"/><line class="cls-3" x1="5.51" y1="72.5" x2="8.01" y2="72.5"/><line class="cls-3" x1="90.01" y1="72.5" x2="92.51" y2="72.5"/></g></g><g id="Scene"><ellipse class="cls-4" cx="24.11" cy="85.55" rx="5" ry="1.5"/><path class="cls-5" d="M21.77,58a1.81,1.81,0,0,0,0,2.55l1.06,1a1.81,1.81,0,0,1,0,2.55l-1.06,1.05a1.81,1.81,0,0,0,0,2.55"/><path class="cls-5" d="M26.33,58a1.79,1.79,0,0,0,0,2.55l1.05,1a1.81,1.81,0,0,1,0,2.55l-1.05,1.05a1.79,1.79,0,0,0,0,2.55"/><path class="cls-6" d="M18.38,82.7a4.8,4.8,0,1,1,0-9.6v2.4a2.4,2.4,0,1,0,0,4.8Z"/><rect class="cls-6" x="18.38" y="70.1" width="11.85" height="15" rx="1.2" ry="1.2"/><g id="Outline_Icons" data-name="Outline Icons"><path class="cls-7" d="M26,77.3s2-.93,2-2.42-1.81-1.61-2-.12c-.23-1.49-2-1.37-2,.23S26,77.3,26,77.3Z"/></g><line class="cls-3" x1="22.13" y1="74.3" x2="22.13" y2="76.7"/><polyline class="cls-3" points="21.23 80.9 21.23 78.5 23.03 80.9 23.03 78.5"/><polyline class="cls-3" points="25.13 78.5 26.03 79.7 26.93 78.5"/><line class="cls-3" x1="26.03" y1="80.9" x2="26.03" y2="79.7"/><line class="cls-3" x1="21.53" y1="74.3" x2="22.73" y2="74.3"/><line class="cls-3" x1="21.53" y1="76.7" x2="22.73" y2="76.7"/><path class="cls-8" d="M39.51,36V33.5a10,10,0,0,1,20,0V36a2,2,0,0,1,0,4h-.12a10,10,0,0,1-19.76,0h-.12a2,2,0,1,1,0-4Z"/><path class="cls-3" d="M39.51,36V33.5a10,10,0,0,1,20,0V36a2,2,0,0,1,0,4h-.12a10,10,0,0,1-19.76,0h-.12a2,2,0,1,1,0-4Z"/><circle class="cls-9" cx="55.26" cy="40.25" r="1.25"/><circle class="cls-9" cx="43.76" cy="40.25" r="1.25"/><path class="cls-3" d="M52.52,42.79a4.38,4.38,0,0,1-6,0"/><path class="cls-3" d="M44,37a1.63,1.63,0,0,1,3,0"/><path class="cls-3" d="M52,37a1.63,1.63,0,0,1,3,0"/><line class="cls-3" x1="59.11" y1="63.9" x2="59.11" y2="63.3"/><line class="cls-3" x1="39.91" y1="67.1" x2="39.91" y2="63.3"/><line class="cls-3" x1="59.11" y1="67.1" x2="59.11" y2="63.3"/><path class="cls-10" d="M59.11,67.1h5a1,1,0,0,0,1-1V64.89a15.6,15.6,0,0,0-31.2,0V66.1a1,1,0,0,0,1,1h5v5.4h19.2Z"/><line class="cls-11" x1="49.51" y1="49.29" x2="49.51" y2="72.5"/><path class="cls-12" d="M49.51,49.29a15.6,15.6,0,0,0-15.6,15.6V66.1a1,1,0,0,0,.27.67,15.57,15.57,0,0,1,30.66,0,1,1,0,0,0,.27-.67V64.89A15.61,15.61,0,0,0,49.51,49.29Z"/><line class="cls-3" x1="39.91" y1="67.1" x2="39.91" y2="63.3"/><line class="cls-3" x1="59.11" y1="67.1" x2="59.11" y2="63.3"/><path class="cls-3" d="M59.11,67.1h5a1,1,0,0,0,1-1V64.89a15.6,15.6,0,0,0-31.2,0V66.1a1,1,0,0,0,1,1h5v5.4h19.2Z"/><circle class="cls-13" cx="60.14" cy="55.7" r="0.6"/><circle class="cls-13" cx="57.14" cy="58.7" r="0.6"/><circle class="cls-13" cx="60.14" cy="61.7" r="0.6"/><circle class="cls-13" cx="57.14" cy="64.7" r="0.6"/><circle class="cls-13" cx="57.14" cy="70.7" r="0.6"/><circle class="cls-13" cx="54.14" cy="61.7" r="0.6"/><circle class="cls-13" cx="51.14" cy="64.7" r="0.6"/><circle class="cls-13" cx="54.14" cy="67.7" r="0.6"/><circle class="cls-13" cx="51.14" cy="70.7" r="0.6"/><circle class="cls-13" cx="45.14" cy="64.7" r="0.6"/><circle class="cls-13" cx="48.14" cy="67.7" r="0.6"/><circle class="cls-13" cx="45.14" cy="70.7" r="0.6"/><circle class="cls-13" cx="39.14" cy="58.7" r="0.6"/><circle class="cls-13" cx="42.14" cy="61.7" r="0.6"/><circle class="cls-13" cx="42.14" cy="67.7" r="0.6"/><circle class="cls-13" cx="36.14" cy="61.7" r="0.6"/><path class="cls-14" d="M52.58,80.3a2.39,2.39,0,0,0-2.4-2.4H45.91c-3.12,0-6-1.09-6-9V67.1h-4.8v1.8c0,11.4,5.87,13.8,10.8,13.8h4.27A2.4,2.4,0,0,0,52.58,80.3Z"/><path class="cls-15" d="M74.18,77.9H69.91c-3.12,0-6-1.09-6-9V67.1h-4.8v1.8c0,11.4,5.87,13.8,10.8,13.8h4.27a2.4,2.4,0,0,0,0-4.8Z"/><path class="cls-9" d="M42.21,29.6c-.32,0-.64.66-.88,1.73a16.91,16.91,0,0,0,8.18,1.87,16.79,16.79,0,0,0,8.27-1.92c-.09-1-.18-1.72-.2-2.05C51.32,31.58,45.12,30.18,42.21,29.6Z"/><path class="cls-16" d="M42.21,29.6c3,.6,9.5,2.07,16-.6C63.79,16.56,37.93,16.12,35,28.47a1,1,0,0,0,.17.83,1,1,0,0,0,.74.4c3.7.21,3.87,9.52,3.22,13.7-2,13,6.88,13.7,10.38,20.7,3.65-7.3,13.16-7.71,10.05-22.46a4.9,4.9,0,0,1-.05-1.83C60.18,35.76,61.41,29,58.17,29l-.59.23c.17,2,2.58,18.32-8.17,19S40.51,29.6,42.21,29.6Z"/><path class="cls-17" d="M58.88,24.71c-1.51-8-21.34-7-23.88,3.76a1,1,0,0,0,.17.83,1,1,0,0,0,.74.4,2.19,2.19,0,0,1,1.29.53C40.34,22.17,53.85,20.43,58.88,24.71Z"/><path class="cls-3" d="M42.21,29.6c3,.6,9.5,2.07,16-.6C63.79,16.56,37.93,16.12,35,28.47a1,1,0,0,0,.17.83,1,1,0,0,0,.74.4c3.7.21,3.87,9.52,3.22,13.7-2,13,6.88,13.7,10.38,20.7,3.65-7.3,13.16-7.71,10.05-22.46a4.9,4.9,0,0,1-.05-1.83C60.18,35.76,61.41,29,58.17,29l-.59.23c.17,2,2.58,18.32-8.17,19S40.51,29.6,42.21,29.6Z"/><path class="cls-18" d="M63.54,42.71A.67.67,0,0,0,63,43.8,1.26,1.26,0,0,1,62.16,46C59,46.51,52,40.57,49.41,42.2c-2.6-1.63-9.63,4.31-12.75,3.75a1.27,1.27,0,0,1-.84-2.15.66.66,0,0,0-.55-1.09c-2.67.14-2.75,6.37,3.84,6.09,4.39-.19,8.35-2,10.3-4.8,2,2.78,5.91,4.61,10.3,4.8C66.3,49.08,66.22,42.85,63.54,42.71Z"/><ellipse class="cls-19" cx="63.36" cy="84.6" rx="19.29" ry="1.5"/><path class="cls-20" d="M58.58,80.56H55.86l5.81-18a1.22,1.22,0,0,1,1.16-.84h1.84Z"/><path class="cls-21" d="M82.31,80.56H58.58L64.67,61.7h22a1.24,1.24,0,0,1,1,.5,1.21,1.21,0,0,1,.17,1.09Z"/><path class="cls-22" d="M64.67,61.7h22a1.24,1.24,0,0,1,1,.5,1.21,1.21,0,0,1,.17,1.09l-.73,2.27H63.42Z"/><path class="cls-23" d="M82.31,80.56h-25v3H79.88a2.43,2.43,0,0,0,2.43-2.43Z"/><path class="cls-20" d="M57.36,80.56h-11a.61.61,0,0,0-.61.61,2.43,2.43,0,0,0,2.44,2.43h9.18Z"/><path class="cls-24" d="M75.42,70.46a1.37,1.37,0,0,1,.65-1.14A1.41,1.41,0,0,0,75,68.73c-.47,0-.91.27-1.15.27s-.6-.26-1-.26a1.48,1.48,0,0,0-1.24.75,3.08,3.08,0,0,0,.38,3c.25.37.55.77.94.76s.52-.24,1-.24.59.24,1,.23.66-.37.91-.73a3.49,3.49,0,0,0,.42-.85A1.34,1.34,0,0,1,75.42,70.46Z"/><line class="cls-3" x1="74.4" y1="67.18" x2="74.95" y2="66.63"/><path class="cls-11" d="M82.31,80.56H58.58L64.67,61.7h22a1.24,1.24,0,0,1,1,.5,1.21,1.21,0,0,1,.17,1.09Z"/></g></svg>