<?xml version="1.0" encoding="UTF-8"?>
<svg width="74px" height="74px" viewBox="0 0 74 74" version="1.1" xmlns="http://www.w3.org/2000/svg" xmlns:xlink="http://www.w3.org/1999/xlink">
    <!-- Generator: Sketch 55.2 (78181) - https://sketchapp.com -->
    <title>value-icon</title>
    <desc>Created with Sketch.</desc>
    <defs>
        <linearGradient x1="34.5679012%" y1="91.2559167%" x2="64.8558602%" y2="8.39706947%" id="linearGradient-1">
            <stop stop-color="#398DD3" offset="0%"></stop>
            <stop stop-color="#54BDEA" offset="100%"></stop>
        </linearGradient>
    </defs>
    <g id="value-icon" stroke="none" stroke-width="1" fill="none" fill-rule="evenodd">
        <g id="round-attach_money-24px">
            <polygon id="Path" points="0 0 74 0 74 74 0 74"></polygon>
            <path d="M36.3833333,33.6083333 C29.3841667,31.7891667 27.1333333,29.9083333 27.1333333,26.9791667 C27.1333333,23.6183333 30.2475,21.275 35.4583333,21.275 C39.8366667,21.275 42.0258333,22.94 42.8275,25.5916667 C43.1975,26.825 44.215,27.75 45.51,27.75 L46.435,27.75 C48.47,27.75 49.9191667,25.7458333 49.21,23.8341667 C47.915,20.1958333 44.8933333,17.1741667 40.0833333,16.0025 L40.0833333,13.875 C40.0833333,11.3158333 38.0175,9.25 35.4583333,9.25 C32.8991667,9.25 30.8333333,11.3158333 30.8333333,13.875 L30.8333333,15.91 C24.8516667,17.205 20.0416667,21.09 20.0416667,27.0408333 C20.0416667,34.1633333 25.9308333,37.7091667 34.5333333,39.775 C42.2416667,41.625 43.7833333,44.3383333 43.7833333,47.2058333 C43.7833333,49.3333333 42.2725,52.725 35.4583333,52.725 C30.3708333,52.725 27.75,50.9058333 26.7325,48.3158333 C26.27,47.1133333 25.2216667,46.25 23.9575,46.25 L23.0941667,46.25 C21.0283333,46.25 19.5791667,48.3466667 20.35,50.2583333 C22.1075,54.5441667 26.2083333,57.0725 30.8333333,58.0591667 L30.8333333,60.125 C30.8333333,62.6841667 32.8991667,64.75 35.4583333,64.75 C38.0175,64.75 40.0833333,62.6841667 40.0833333,60.125 L40.0833333,58.1208333 C46.0958333,56.98 50.875,53.4958333 50.875,47.175 C50.875,38.4183333 43.3825,35.4275 36.3833333,33.6083333 Z" id="Path" fill="url(#linearGradient-1)" fill-rule="nonzero"></path>
        </g>
    </g>
</svg>